<?xml version="1.0" encoding="UTF-8"?>
<!DOCTYPE svg PUBLIC "-//W3C//DTD SVG 1.1//EN" "http://www.w3.org/Graphics/SVG/1.1/DTD/svg11.dtd">
<!-- Creator: CorelDRAW 2018 (64 Bit Versão de avaliação) -->
<svg xmlns="http://www.w3.org/2000/svg" xml:space="preserve" width="48px" height="48px" version="1.1" style="shape-rendering:geometricPrecision; text-rendering:geometricPrecision; image-rendering:optimizeQuality; fill-rule:evenodd; clip-rule:evenodd"
viewBox="0 0 48 48"
 xmlns:xlink="http://www.w3.org/1999/xlink">
 <defs>
  <style type="text/css">
   <![CDATA[
    .str0 {stroke:#373435;stroke-width:2.36;stroke-miterlimit:22.9256}
    .fil2 {fill:#C8DF93}
    .fil0 {fill:#90C74A}
    .fil1 {fill:black}
   ]]>
  </style>
 </defs>
 <g id="Camada_x0020_1">
  <metadata id="CorelCorpID_0Corel-Layer"/>
  <g id="_1833937785248">
  </g>
  <g id="_1833937785152">
  </g>
  <g id="_1833937784256">
  </g>
  <g id="_1833937784896">
  </g>
  <g id="_1833937782080">
  </g>
  <g id="_1833937782944">
  </g>
  <g id="_1833937781792">
  </g>
  <g id="_1833937781568">
  </g>
  <g id="_1833937781376">
  </g>
  <g id="_1833937779424">
  </g>
  <g id="_1833937779520">
  </g>
  <g id="_1833937779648">
  </g>
  <g id="_1833937781024">
  </g>
  <g id="_1833937777376">
  </g>
  <g id="_1833937779104">
  </g>
  <path class="fil0 str0" d="M44.24 37.26c0.05,0.03 0.09,0.06 0.13,0.1l0.37 0.31 -0.02 0.02c0.66,0.72 1.06,1.67 1.06,2.7 0,2.23 -1.86,4.04 -4.15,4.04 -1.05,0 -2.02,-0.38 -2.75,-1.02l-0.04 0.04 -0.26 -0.33c-0.16,-0.17 -0.31,-0.36 -0.44,-0.56l-9.15 -11.6 3.46 -3.39 11.79 9.69z"/>
  <circle class="fil0 str0" cx="19.93" cy="19.93" r="16.54"/>
  <path class="fil1" d="M46.93 39.83c-0.12,-1.65 -0.94,-3.17 -2.26,-4.16l-8.75 -6.58c1.55,-2.7 2.44,-5.82 2.44,-9.16 0,-10.18 -8.25,-18.43 -18.43,-18.43 -10.18,0 -18.43,8.25 -18.43,18.43 0,10.18 8.25,18.43 18.43,18.43 3.84,0 7.41,-1.18 10.36,-3.19l6.38 8.49c1.09,1.45 2.76,2.28 4.57,2.28 0,0 0,0 0,0 1.52,0 2.95,-0.6 4.03,-1.67 1.17,-1.17 1.78,-2.79 1.66,-4.44zm-43.54 -19.9c0,-9.13 7.41,-16.54 16.54,-16.54 9.13,0 16.54,7.41 16.54,16.54 0,9.13 -7.41,16.54 -16.54,16.54 -9.13,0 -16.54,-7.41 -16.54,-16.54zm40.54 23c-0.72,0.72 -1.67,1.12 -2.69,1.12l0 0c-1.21,0 -2.33,-0.56 -3.05,-1.53l-6.37 -8.52c1.17,-0.98 2.21,-2.11 3.1,-3.35l8.61 6.53c0.88,0.66 1.44,1.68 1.51,2.78 0.08,1.1 -0.32,2.19 -1.11,2.97z"/>
  <path class="fil1" d="M19.93 7.15c-7.06,0 -12.78,5.72 -12.78,12.78 0,7.06 5.72,12.78 12.78,12.78 7.06,0 12.78,-5.72 12.78,-12.78 0,-7.06 -5.72,-12.78 -12.78,-12.78zm0 23.67c-6.01,0 -10.89,-4.88 -10.89,-10.89 0,-6.02 4.88,-10.89 10.89,-10.89 6.01,0 10.89,4.87 10.89,10.89 0,6.01 -4.88,10.89 -10.89,10.89z"/>
  <ellipse class="fil2 str0" cx="19.84" cy="19.9" rx="10.89" ry="10.93"/>
  <polygon class="fil1" points="20.79,13.56 18.9,13.56 18.9,18.9 13.55,18.9 13.55,20.79 18.9,20.79 18.9,26.14 20.79,26.14 20.79,20.79 26.13,20.79 26.13,18.9 20.79,18.9 "/>
 </g>
</svg>
