<?xml version="1.0" encoding="UTF-8" standalone="no"?>
<svg
   xmlns:dc="http://purl.org/dc/elements/1.1/"
   xmlns:cc="http://creativecommons.org/ns#"
   xmlns:rdf="http://www.w3.org/1999/02/22-rdf-syntax-ns#"
   xmlns:svg="http://www.w3.org/2000/svg"
   xmlns="http://www.w3.org/2000/svg"
   viewBox="0 0 2560 1440"
   height="1440"
   width="2560"
   xml:space="preserve"
   id="svg2"
   version="1.1"><metadata
     id="metadata8"><rdf:RDF><cc:Work
         rdf:about=""><dc:format>image/svg+xml</dc:format><dc:type
           rdf:resource="http://purl.org/dc/dcmitype/StillImage" /></cc:Work></rdf:RDF></metadata><defs
     id="defs6"><clipPath
       id="clipPath18"
       clipPathUnits="userSpaceOnUse"><path
         id="path16"
         d="M 0,1080 H 1920 V 0 H 0 Z" /></clipPath></defs><g
     transform="matrix(1.3333333,0,0,-1.3333333,0,1440)"
     id="g10"><g
       id="g12"><g
         clip-path="url(#clipPath18)"
         id="g14"><g
           transform="translate(589.7451,679.1192)"
           id="g20"><path
             id="path22"
             style="fill:#ffd200;fill-opacity:1;fill-rule:nonzero;stroke:none"
             d="M 0,0 C 32.868,32.864 86.151,32.864 119.018,0 V 67.533 C 67.05,91.867 3.249,82.586 -39.669,39.672 -82.586,-3.245 -91.865,-67.049 -67.524,-119.009 L 0,-119.012 C -32.857,-86.147 -32.857,-32.863 0,0" /></g><g
           transform="translate(756.9579,679.1192)"
           id="g24"><path
             id="path26"
             style="fill:#ffd200;fill-opacity:1;fill-rule:nonzero;stroke:none"
             d="m 0,0 c -18.624,0 -32.21,-17.851 -26.969,-35.718 8.402,-28.583 1.324,-60.746 -21.226,-83.294 -32.867,-32.863 -86.15,-32.863 -119.018,0 v -67.53 c 51.96,-24.335 115.77,-15.056 158.688,27.862 37.496,37.501 49.319,90.954 35.467,138.518 C 23.455,-8.203 12.451,0 0,0" /></g><g
           transform="translate(1069.1204,617.2555)"
           id="g28"><path
             id="path30"
             style="fill:#ffd200;fill-opacity:1;fill-rule:nonzero;stroke:none"
             d="m 0,0 c 0,-31.89 -17.739,-59.637 -43.881,-73.912 -16.347,-8.922 -19.358,-31.155 -6.191,-44.322 8.811,-8.807 22.387,-10.784 33.305,-4.792 43.432,23.836 72.869,69.99 72.869,123.026 0,60.693 -38.555,112.37 -92.504,131.904 L -84.15,84.152 C -37.679,84.152 0,46.476 0,0" /></g><g
           transform="translate(950.8843,499.0218)"
           id="g32"><path
             id="path34"
             style="fill:#ffd200;fill-opacity:1;fill-rule:nonzero;stroke:none"
             d="m 0,0 c 13.165,13.166 10.155,35.398 -6.183,44.321 -26.151,14.278 -43.889,42.024 -43.889,73.912 0,46.479 37.677,84.155 84.159,84.155 l -47.758,47.752 c -53.95,-19.535 -92.504,-71.213 -92.504,-131.907 0,-53.035 29.446,-99.19 72.87,-123.026 C -22.388,-10.785 -8.803,-8.809 0,0" /></g><g
           transform="translate(452.8661,759.3211)"
           id="g36"><path
             id="path38"
             style="fill:#ffd200;fill-opacity:1;fill-rule:nonzero;stroke:none"
             d="m 0,0 v -55.658 h -253.078 c -15.365,0 -27.827,12.46 -27.827,27.829 0,15.368 12.462,27.829 27.827,27.829 z" /></g><g
           transform="translate(284.2148,617.7532)"
           id="g40"><path
             id="path42"
             style="fill:#ffd200;fill-opacity:1;fill-rule:nonzero;stroke:none"
             d="M 0,0 V -138.529 H 55.654 V 55.658 C 24.912,55.658 0,30.74 0,0" /></g><g
           transform="translate(1546.0267,515.101)"
           id="g44"><path
             id="path46"
             style="fill:#ffd200;fill-opacity:1;fill-rule:nonzero;stroke:none"
             d="m 0,0 c 0,-21.592 -23.388,-35.169 -42.089,-24.364 -25.189,14.563 -42.136,41.791 -42.136,72.978 h 56.15 c 0,-10.321 5.573,-19.34 13.871,-24.219 C -5.506,19.276 0,10.099 0,0" /></g><g
           transform="translate(1237.8473,535.365)"
           id="g48"><path
             id="path50"
             style="fill:#ffd200;fill-opacity:1;fill-rule:nonzero;stroke:none"
             d="m 0,0 h 112.186 c 30.734,0 55.656,-24.918 55.656,-55.658 H 0 -2.257 -55.665 V 0 Z" /></g><g
           transform="translate(1182.1825,597.3194)"
           id="g52"><path
             id="path54"
             style="fill:#ffd200;fill-opacity:1;fill-rule:nonzero;stroke:none"
             d="m 0,0 v 135.107 c 0,15.37 12.462,27.83 27.828,27.83 15.376,0 27.837,-12.46 27.837,-27.83 V 0 c 0,-15.37 -12.461,-27.828 -27.837,-27.828 C 12.462,-27.828 0,-15.37 0,0" /></g><g
           transform="translate(1656.584,647.4352)"
           id="g56"><path
             id="path58"
             style="fill:#ffd200;fill-opacity:1;fill-rule:nonzero;stroke:none"
             d="m 0,0 h -82.13 c -31.171,0 -56.588,24.986 -57.121,56.155 v 51.132 c -32.925,-11.932 -56.304,-43.804 -55.513,-81.028 0.972,-46.105 39.889,-82.413 85.998,-82.413 H 0.791 c 14.957,0 28.009,-11.284 28.98,-26.207 1.058,-16.354 -11.889,-29.948 -28.017,-29.948 l -57.094,-0.018 c -14.957,0 -28.008,-11.284 -28.98,-26.207 -1.058,-16.353 11.889,-29.949 28.018,-29.949 l 58.056,0.021 c 47.309,0 85.502,38.997 84.197,86.597 C 84.693,-35.984 45.9,0 0,0" /></g><g
           transform="translate(1562.5275,703.5895)"
           id="g60"><path
             id="path62"
             style="fill:#ffd200;fill-opacity:1;fill-rule:nonzero;stroke:none"
             d="M 0,0 H 150.712 V 56.154 H 56.16 C 25.14,56.154 0,31.012 0,0" /></g><g
           transform="translate(304.4684,320.9324)"
           id="g64"><path
             id="path66"
             style="fill:#ffd200;fill-opacity:1;fill-rule:nonzero;stroke:none"
             d="M 0,0 C 10.422,0 18.044,7.861 18.044,18.364 18.044,28.788 10.422,36.649 0,36.649 H -9.145 V 0 Z m -19.492,44.827 c 0,0.8 0.639,1.524 1.448,1.524 H 0.962 c 15.471,0 28.143,-12.591 28.143,-27.987 0,-15.556 -12.672,-28.147 -28.143,-28.147 h -19.006 c -0.809,0 -1.448,0.724 -1.448,1.524 z" /></g><g
           transform="translate(373.0032,365.7604)"
           id="g68"><path
             id="path70"
             style="fill:#ffd200;fill-opacity:1;fill-rule:nonzero;stroke:none"
             d="m 0,0 c 0,0.799 0.715,1.524 1.525,1.524 h 7.449 c 0.81,0 1.525,-0.725 1.525,-1.524 v -53.086 c 0,-0.8 -0.715,-1.524 -1.525,-1.524 H 1.525 C 0.715,-54.61 0,-53.886 0,-53.086 Z" /></g><g
           transform="translate(451.7323,368.083)"
           id="g72"><path
             id="path74"
             style="fill:#ffd200;fill-opacity:1;fill-rule:nonzero;stroke:none"
             d="m 0,0 c 7.211,0 14.109,-2.805 19.558,-7.456 0.648,-0.643 0.725,-1.602 0.086,-2.246 l -4.973,-5.213 c -0.638,-0.64 -1.362,-0.64 -2.086,0 -3.449,3.048 -7.698,4.651 -12.108,4.651 -10.022,0 -17.958,-8.58 -17.958,-18.601 0,-9.943 7.936,-18.364 18.043,-18.364 4.487,0 7.935,1.363 9.536,2.003 v 6.815 H 3.686 c -0.886,0 -1.523,0.646 -1.523,1.443 v 6.336 c 0,0.883 0.637,1.524 1.523,1.524 h 15.396 c 0.801,0 1.439,-0.722 1.439,-1.524 V -51.16 c 0,-0.642 -0.315,-1.044 -0.638,-1.282 0,0 -8.261,-5.21 -19.883,-5.21 -15.958,0 -28.789,12.668 -28.789,28.706 C -28.789,-12.91 -15.958,0 0,0" /></g><g
           transform="translate(512.8837,365.7604)"
           id="g76"><path
             id="path78"
             style="fill:#ffd200;fill-opacity:1;fill-rule:nonzero;stroke:none"
             d="m 0,0 c 0,0.799 0.724,1.524 1.525,1.524 h 7.459 c 0.801,0 1.524,-0.725 1.524,-1.524 v -53.086 c 0,-0.8 -0.723,-1.524 -1.524,-1.524 H 1.525 C 0.724,-54.61 0,-53.886 0,-53.086 Z" /></g><g
           transform="translate(574.3793,357.6606)"
           id="g80"><path
             id="path82"
             style="fill:#ffd200;fill-opacity:1;fill-rule:nonzero;stroke:none"
             d="m 0,0 h -12.271 c -0.885,0 -1.524,0.721 -1.524,1.523 v 6.576 c 0,0.8 0.639,1.524 1.524,1.524 h 35.04 c 0.886,0 1.523,-0.724 1.523,-1.524 V 1.523 C 24.292,0.721 23.655,0 22.769,0 H 10.498 v -44.986 c 0,-0.8 -0.724,-1.524 -1.524,-1.524 h -7.46 c -0.8,0 -1.514,0.724 -1.514,1.524 z" /></g><g
           transform="translate(660.158,330.317)"
           id="g84"><path
             id="path86"
             style="fill:#ffd200;fill-opacity:1;fill-rule:nonzero;stroke:none"
             d="M 0,0 -8.022,17.64 H -8.26 L -16.119,0 Z m -34.64,-17.082 24.941,53.966 c 0.239,0.481 0.639,0.881 1.363,0.881 h 0.8 c 0.8,0 1.124,-0.4 1.362,-0.881 L 18.52,-17.082 c 0.486,-1.043 -0.153,-2.084 -1.363,-2.084 h -6.973 c -1.2,0 -1.763,0.482 -2.325,1.603 l -3.934,8.661 h -23.969 l -3.936,-8.661 c -0.323,-0.801 -1.038,-1.603 -2.324,-1.603 h -6.973 c -1.2,0 -1.848,1.041 -1.363,2.084" /></g><g
           transform="translate(714.8215,365.7604)"
           id="g88"><path
             id="path90"
             style="fill:#ffd200;fill-opacity:1;fill-rule:nonzero;stroke:none"
             d="m 0,0 c 0,0.799 0.638,1.524 1.525,1.524 h 7.374 c 0.8,0 1.523,-0.725 1.523,-1.524 v -44.986 h 20.455 c 0.876,0 1.523,-0.722 1.523,-1.524 v -6.576 c 0,-0.8 -0.647,-1.524 -1.523,-1.524 H 1.525 C 0.638,-54.61 0,-53.886 0,-53.086 Z" /></g><g
           transform="translate(779.9175,310.35)"
           id="g92"><path
             id="path94"
             style="fill:#ffd200;fill-opacity:1;fill-rule:nonzero;stroke:none"
             d="m 0,0 h 27.18 c 0.886,0 1.525,-0.643 1.525,-1.524 v -3.127 c 0,-0.803 -0.639,-1.443 -1.525,-1.443 H 0 c -0.886,0 -1.525,0.64 -1.525,1.443 v 3.127 C -1.525,-0.643 -0.886,0 0,0" /></g><g
           transform="translate(843.0041,319.0107)"
           id="g96"><path
             id="path98"
             style="fill:#ffd200;fill-opacity:1;fill-rule:nonzero;stroke:none"
             d="m 0,0 2.886,4.97 c 0.639,1.121 2.01,1.121 2.725,0.559 0.4,-0.238 6.897,-4.967 12.109,-4.967 4.172,0 7.297,2.725 7.297,6.172 0,4.092 -3.449,6.895 -10.184,9.621 -7.536,3.046 -15.071,7.862 -15.071,17.321 0,7.138 5.286,15.396 18.042,15.396 8.175,0 14.433,-4.17 16.035,-5.37 0.8,-0.481 1.048,-1.845 0.485,-2.646 l -3.048,-4.572 c -0.648,-0.962 -1.848,-1.603 -2.811,-0.962 -0.638,0.402 -6.735,4.407 -11.146,4.407 -4.573,0 -7.049,-3.045 -7.049,-5.613 0,-3.766 2.962,-6.331 9.459,-8.977 7.774,-3.127 16.758,-7.778 16.758,-18.123 0,-8.259 -7.136,-15.877 -18.444,-15.877 C 7.945,-8.661 2,-3.93 0.4,-2.408 -0.324,-1.686 -0.725,-1.283 0,0" /></g><g
           transform="translate(918.5979,365.7604)"
           id="g100"><path
             id="path102"
             style="fill:#ffd200;fill-opacity:1;fill-rule:nonzero;stroke:none"
             d="m 0,0 c 0,0.799 0.648,1.524 1.525,1.524 h 32.638 c 0.885,0 1.524,-0.725 1.524,-1.524 v -6.575 c 0,-0.806 -0.639,-1.525 -1.524,-1.525 H 10.431 v -13.153 h 19.797 c 0.811,0 1.525,-0.718 1.525,-1.524 v -6.654 c 0,-0.881 -0.714,-1.524 -1.525,-1.524 H 10.431 v -14.031 h 23.732 c 0.885,0 1.524,-0.722 1.524,-1.524 v -6.576 c 0,-0.8 -0.639,-1.524 -1.524,-1.524 H 1.525 C 0.648,-54.61 0,-53.886 0,-53.086 Z" /></g><g
           transform="translate(1018.1713,341.7035)"
           id="g104"><path
             id="path106"
             style="fill:#ffd200;fill-opacity:1;fill-rule:nonzero;stroke:none"
             d="m 0,0 c 4.249,0 7.936,3.689 7.936,8.179 0,4.249 -3.687,7.779 -7.936,7.779 H -13.071 V 0 Z m -23.578,24.057 c 0,0.8 0.647,1.522 1.523,1.522 H 0.886 c 9.622,0 17.481,-7.698 17.481,-17.239 0,-7.379 -4.897,-13.391 -11.87,-16.203 l 10.984,-20.363 c 0.563,-1.043 0,-2.326 -1.362,-2.326 H 7.697 c -0.724,0 -1.124,0.4 -1.286,0.721 l -10.66,21.25 h -8.898 v -20.45 c 0,-0.8 -0.724,-1.521 -1.525,-1.521 h -7.383 c -0.876,0 -1.523,0.721 -1.523,1.521 z" /></g><g
           transform="translate(1069.5483,365.199)"
           id="g108"><path
             id="path110"
             style="fill:#ffd200;fill-opacity:1;fill-rule:nonzero;stroke:none"
             d="m 0,0 c -0.485,1.043 0.163,2.083 1.363,2.083 h 8.183 c 0.714,0 1.201,-0.48 1.362,-0.881 l 15.395,-34.481 h 0.563 L 42.261,1.202 c 0.161,0.401 0.638,0.881 1.363,0.881 h 8.173 c 1.21,0 1.849,-1.04 1.363,-2.083 L 28.304,-53.97 c -0.238,-0.481 -0.638,-0.878 -1.362,-0.878 h -0.801 c -0.723,0 -1.123,0.397 -1.361,0.878 z" /></g><g
           transform="translate(1158.8518,365.7604)"
           id="g112"><path
             id="path114"
             style="fill:#ffd200;fill-opacity:1;fill-rule:nonzero;stroke:none"
             d="m 0,0 c 0,0.799 0.725,1.524 1.525,1.524 h 7.459 c 0.8,0 1.524,-0.725 1.524,-1.524 v -53.086 c 0,-0.8 -0.724,-1.524 -1.524,-1.524 H 1.525 c -0.8,0 -1.525,0.724 -1.525,1.524 z" /></g><g
           transform="translate(1237.6565,368.083)"
           id="g116"><path
             id="path118"
             style="fill:#ffd200;fill-opacity:1;fill-rule:nonzero;stroke:none"
             d="m 0,0 c 8.108,0 13.958,-2.565 19.416,-7.456 0.714,-0.643 0.714,-1.602 0.076,-2.246 l -4.896,-5.053 c -0.554,-0.641 -1.363,-0.641 -2.002,0 -3.372,2.966 -7.859,4.735 -12.346,4.735 -10.27,0 -17.881,-8.581 -17.881,-18.686 0,-10.023 7.697,-18.523 17.957,-18.523 4.811,0 8.898,1.845 12.27,4.57 0.639,0.559 1.525,0.481 2.002,0 l 4.973,-5.132 c 0.647,-0.562 0.486,-1.602 -0.077,-2.164 -5.45,-5.293 -12.347,-7.779 -19.492,-7.779 -16.033,0 -28.942,12.75 -28.942,28.788 C -28.942,-12.91 -16.033,0 0,0" /></g><g
           transform="translate(1296.4937,365.7604)"
           id="g120"><path
             id="path122"
             style="fill:#ffd200;fill-opacity:1;fill-rule:nonzero;stroke:none"
             d="m 0,0 c 0,0.799 0.648,1.524 1.525,1.524 h 32.638 c 0.876,0 1.524,-0.725 1.524,-1.524 v -6.575 c 0,-0.806 -0.648,-1.525 -1.524,-1.525 H 10.422 v -13.153 h 19.806 c 0.801,0 1.525,-0.718 1.525,-1.524 v -6.654 c 0,-0.881 -0.724,-1.524 -1.525,-1.524 H 10.422 v -14.031 h 23.741 c 0.876,0 1.524,-0.722 1.524,-1.524 v -6.576 c 0,-0.8 -0.648,-1.524 -1.524,-1.524 H 1.525 C 0.648,-54.61 0,-53.886 0,-53.086 Z" /></g><g
           transform="translate(1369.2023,319.0107)"
           id="g124"><path
             id="path126"
             style="fill:#ffd200;fill-opacity:1;fill-rule:nonzero;stroke:none"
             d="m 0,0 2.886,4.97 c 0.639,1.121 2.01,1.121 2.725,0.559 0.4,-0.238 6.897,-4.967 12.109,-4.967 4.172,0 7.297,2.725 7.297,6.172 0,4.092 -3.44,6.895 -10.185,9.621 -7.535,3.046 -15.07,7.862 -15.07,17.321 0,7.138 5.286,15.396 18.042,15.396 8.175,0 14.434,-4.17 16.035,-5.37 0.8,-0.481 1.048,-1.845 0.485,-2.646 l -3.048,-4.572 c -0.648,-0.962 -1.848,-1.603 -2.811,-0.962 -0.638,0.402 -6.736,4.407 -11.146,4.407 -4.573,0 -7.05,-3.045 -7.05,-5.613 0,-3.766 2.963,-6.331 9.46,-8.977 7.774,-3.127 16.758,-7.778 16.758,-18.123 0,-8.259 -7.136,-15.877 -18.444,-15.877 C 7.935,-8.661 2,-3.93 0.4,-2.408 -0.315,-1.686 -0.715,-1.283 0,0" /></g></g></g></g></svg>