<svg version="1.1" id="Capa_1" xmlns="http://www.w3.org/2000/svg" xmlns:xlink="http://www.w3.org/1999/xlink" x="0px" y="0px" viewBox="0 0 1200 1200" enable-background="new 0 0 1200 1200" xml:space="preserve">
<path fill="#E1967E" d="M402.544,665.864c-3.642-1.121-7.204-2.733-9.405-5.882c-1.337-1.919-2.517-2.715-4.842-2.833
    c-4.968-0.245-9.771-2.838-14.914-0.97c-0.894,0.327-1.049-0.471-1.341-1.224c-2.077-5.375-8.14-7.578-13.817-5.008
    c-0.536-1.749-0.783-3.558-2.774-4.575c-1.827-0.929-3.596-0.078-5.406-0.399c0.482-1.982,2.894-4.112,1.335-5.638
    c-2.224-2.179-2.079-4.939-3.027-7.361c-2.288-5.86-9.8-11.064-15.728-10.037c-5.633,0.97-9.718-1.698-12.377-5.872
    c-1.727-2.709-3.762-4.889-6.259-6.324c-3.96-2.269-1.422-4.7-0.68-7.015c0.225-0.702,2.636-0.258,1.98-2.058
    c-0.601-1.647-2.163-0.739-3.342-0.851c-0.268,3.897-5.551,2.22-6.314,5.565c-0.271-0.114-0.555-0.204-0.811-0.344
    c-2.039-1.148-4.153-0.503-6.295-0.55c-4.201-0.086-8.705-0.573-12.035-3.421c-4.337-3.711-5.524-4.032-10.273-0.71
    c-0.593,0.413-1.398,0.524-2.23,0.822c-0.12-1.944,3.199-3.251,0.922-4.661c-1.54-0.955-3.963-0.867-5.604,1.056
    c-0.939,1.097-2.126,2.774-3.236,2.805c-5.083,0.133-7.254,3.325-9.109,7.353c-1.341,2.909-3.624,3.971-6.407,1.629
    c-2.832-2.381-5.79-1.997-8.979-0.957c-7.222,2.359-12.166-2.226-11.214-9.882c0.483-3.887,1.119-7.717,1.784-11.566
    c0.395-2.287,0.022-4.12-3.141-5.131c-4.098-1.317-7.762,0.074-11.612,0.225c-2.613,0.102-3.487-0.42-2.102-3.235
    c2.417-4.908,4.269-10.094,6.615-15.043c1.056-2.224,0.757-3.59-1.45-4.462c-4.214-1.669-10.506,1.207-12.296,5.45
    c-2.312,5.487-7.498,6.582-12.441,7.105c-3.143,0.334-5.884-1.739-7.418-4.943c-2.638-5.508-4.618-11.019-1.942-17.122
    c0.922-2.111,2.143-4.225,2.433-6.444c0.78-5.974,4.091-9.057,9.233-12.243c6.437-3.994,11.932-5.146,18.569-1.649
    c1.646,0.869,3.467,0.9,4.699-1.44c1.917-3.638,4.74-4.61,8.867-2.917c2.501,1.031,4.948,2.607,8.272,1.95
    c2.037-0.399,4.469,1.725,3.803,4.708c-0.958,4.282,0.802,7.932,2.231,11.709c0.611,1.62,1.946,2.099,3.383,2.201
    c1.422,0.1,1.723-1.217,2.336-2.23c1.52-2.526,1.224-5,1.096-7.858c-0.22-4.922-3.501-10.09,1.009-14.98
    c3.886-4.21,8.382-7.584,13.345-10.021c7.292-3.582,9.115-5.716,9.2-14.266c0.01-1.05,0.948-2.023,1.718-1.568
    c1.937,1.137,2.439,0.559,2.658-1.496c0.258-2.459,2.35-3.489,4.292-4.542c1.392-0.755,3.402-1.252,3.993-2.434
    c1.847-3.69,5.303-4.081,8.563-5.168c2.611-0.87,5.97-1.182,6.902-4.261c0.908-2.995,2.832-4.376,5.424-5.454
    c2.928-1.216,5.725-2.792,8.717-3.798c2.124-0.713,4.009-2.444,7.064-2.076c-1.494,0.858-2.556,1.336-3.457,2.023
    c-1.047,0.8-2.416,1.937-1.519,3.244c0.721,1.047,2.315,2.164,3.818,1.252c4.739-2.877,10.172-4.015,15.103-6.339
    c1.072-0.502,3.724-1.044,2.764-3.192c-0.777-1.74-2.863-0.594-4.365-0.695c-0.361-0.024-0.738,0.562-1.134,0.599
    c-2.499,0.22-4.361-1.011-5.845-2.859c-1.727-2.152-0.271-3.051,1.353-4.487c1.227-1.081,2.788-3.121,1.997-4.973
    c-0.736-1.727-2.893-0.469-4.382-0.791c-0.912-0.196-1.962,0.371-3.238-0.881c4.427-1.611,8.405-3.509,13.009-2.285
    c2.604,0.693,5.058,0.331,7.706-0.075c4.919-0.755,9.345-2.886,14.067-4.126l-0.135,0.127c1.627-1.115,3.311-2.163,4.873-3.364
    c1.778-1.369,3.052-3.46,2.618-5.484c-0.349-1.624-1.902-3.372-4.149-3.359c-2.321,0.013-4.53,0.357-5.211-2.929
    c-0.456-2.206-2.94-4.643-2.399-6.27c1.139-3.422-0.616-6.281-0.638-9.402c-0.029-3.99-2.039-4.551-5.279-1.905
    c-2.152,1.758-4.402,3.298-6.865,4.543c-0.98,0.495-1.94,1.393-3.078,0.072c-0.794-0.924-1.806-1.83-1.216-3.061
    c2.288-4.775-0.674-6.809-4.24-8.731c-3.708-1.999-7.691-2.695-11.77-2.347c-2.764,0.235-5.09,1.489-6.333,4.434
    c-0.936,2.218-1.611,4.94-4.099,5.991c-2.99,1.263-3.382,3.641-2.746,6.126c0.448,1.757,0.12,2.656-0.826,4.168
    c-1.831,2.928-4.351,4.633-7.374,5.733c-4.329,1.576-6.921,4.519-7.844,8.996c-0.117,0.565-0.298,1.116-0.485,1.661
    c-0.909,2.674-3.617,4.403-5.503,3.697c-2.24-0.836-2.656-3.893-1.481-6.508c0.649-1.443,1.123-2.966,1.78-4.406
    c0.683-1.5,0.275-3.163-1.118-3.174c-6.864-0.056-11.369-6.252-18.13-6.598c-3.85-0.199-4.228-4.401-5.653-6.829
    c-0.949-1.612,1.685-4.196,3.758-5.284c4.706-2.471,8.768-6.391,14.134-7.31c2.941-0.503,3.148-4.151,5.683-4.223
    c4.565-0.129,8.703-1.945,13.087-2.708c-0.137,3.784,2.321,4.036,4.939,3.243c2.186-0.661,4.085-0.874,6.246,0.081
    c1.279,0.567,2.889,2.446,4.25-0.382c1.243-2.589,0.419-4.278-1.721-5.463c-2.531-1.4-5.307-2.179-8.263-2.037
    c2.461-2.682,5.733-1.797,8.614-1.586c6.307,0.461,9.603-3.621,12.787-7.863c1.961-2.611,0.193-4.174-2.273-4.509
    c-3.466-0.469-6.954-0.59-9.429,2.891c-1.592,2.241-4.055,3.356-7.566,4.186c1.838-2.948,3.99-5.905-0.917-6.186
    c-3.479-0.199-3.527-1.434-2.403-4.085c0.656-1.547,0.542-3.236-1.515-3.928c-3.013-1.012-10.857,3.701-11.539,6.918
    c-2.959-0.775-5.797-1.292-8.76,0.404c-2.549,1.459-2.105,2.616-0.364,4.265c1.148,1.086,2.496,0.567,3.753,0.774
    c-1.271,2.406-3.247,2.914-5.166,1.168c-1.838-1.671-3.99-1.584-5.731-1.045c-2.39,0.743-4.483,0.639-6.685-0.165
    c-3.983-1.452-7.935-2.333-11.965-0.059c-0.543,0.307-1.437-0.005-2.166-0.03c2.997-1.823,6.067-3.912,9.735-2.505
    c5.118,1.963,9.259-0.206,13.551-2.433c1.938-1.007,2.045-2.654,0.504-3.207c-4.156-1.492-2.524-3.53-1.264-6.007
    c1.38-2.71,0.07-3.473-2.707-3.533c-2.695-0.061-3.344,2.613-5.513,3.334c-0.748-3.115-2.288-4.006-5.267-2.193
    c-2.889,1.758-5.66,0.437-7.879-1.495c-0.706-0.615-1.358-1.559-2.212-1.831c-6.742-2.137-13.471-3.382-20.008,0.77
    c-2.315,1.469-4.765,2.727-7.128,4.126c-1.225,0.726-3.712,0.831-2.538,3.084c0.985,1.895,2.566,3.754,5.264,3.023
    c0.823-0.223,1.524-0.873,2.341-1.147c3.197-1.068,6.31-3.484,9.799-0.819c-0.93,1.023-3.462-0.826-3.397,1.618
    c0.064,2.451,2.243,1.131,3.456,1.29c1.699,0.221,3.449,0.056,5.178,0.056c-2.73,0.887-5.468,0.855-8.206,0.909
    c-0.788,0.015-1.839-0.375-2.212,0.813c-0.426,1.363,0.655,1.612,1.513,2.194c3.258,2.207,7.039,2.912,10.707,3.959
    c-3.904-0.382-7.651,1.892-11.616,0.701c1.195-1.645,2.254-3.232-1.119-3.261c-1.314-0.012-2.5-0.254-3.782-0.768
    c-5.253-2.108-10.613-3.983-16.404-2.14c-0.821,0.262-1.375-0.115-2.002-0.522c-4.841-3.146-9.92-0.865-14.792-0.316
    c-6.141,0.692-12.083,4.121-18.337,2.721c-8.588-1.925-17.242-3.361-25.862-5.024c-10.772-2.079-21.207-1.313-31.853,0.263
    c-7.019,1.039-13.057,5.555-20.465,5.195c-1.486-0.072-3.969,0.419-4.878,2.256c-1.084,2.188,1.269,3.451,2.232,5.015
    c-2.498,1.473-4.519,2.249-7.494,1.481c-3.961-1.024-7.986,0.462-11.661,2.418c-0.98,0.52-1.776,1.035-1.782,2.238
    c-0.008,1.613,1.543,1.82,2.435,2.034c2.519,0.602,4.996,1.43,7.688,1.127c-0.327,1.481-1.114,1.558-1.771,1.865
    c-4.017,1.87-8.567,1.017-12.646,2.507c-3.392,1.24-7.81,1.557-5.942,7.313c0.354,1.088-0.666,2.641-2.256,3.381
    c-1.436,0.67-3.906,0.938-3.329,3.327c0.443,1.828,2.792,1.728,4.155,2.713c0.564,0.406,1.617-0.387,2.033,0.646
    c-4.99,3.425-10.755,4.982-16.166,7.311c-0.841,0.362-1.697,0.349-1.628,1.549c0.078,1.333,1.103,1.221,1.919,1.156
    c1.855-0.145,3.64,0.044,5.577-0.626c5.951-2.057,11.741-4.453,17.681-7.477c-0.955,3.551,0.106,4.49,3.101,3.284
    c1.332-0.534,2.718-0.952,4.107-1.32c3.063-0.815,3.047-0.776,1.484-3.624c-0.129-0.238,0.255-1.058,0.576-1.196
    c4.568-1.961,8.287-6.879,14.263-4.124c0.486,0.224,1.334-0.485,2.034-0.552c5.209-0.516,9.557-4.019,15.647-2.336
    c7.123,1.972,13.599,4.881,20.057,8.186c2.122,1.085,2.628,2.677,2.565,4.746c-0.445-1.691-2.876-0.462-3.091-1.9
    c-0.28-1.884-1.164-2.405-2.608-1.472c-1.171,0.757-2.588,1.838-1.699,3.59c0.67,1.318,1.98,2.051,3.143,0.704
    c1.081-1.249,0.916,0.218,1.348,0.361c4.168,1.378,3.129,4.062,2.112,7.122c-1.539,4.635-3.2,9.387-0.693,14.272
    c-1.928,0.249-4.526-0.361-5.126,2.146c-0.594,2.483,1.131,4.303,3.058,5.829c2.194,1.734,4.661,2.128,7.326,1.899
    c-0.113,0.548-0.072,1.204-0.369,1.619c-0.558,0.777-0.904,0.082-1.536-0.183c-3.007-1.268-5.563-1.228-6.858,2.724
    c-2.888,8.814-11.496,14.117-14.392,22.984c-0.124,0.373-0.581,0.655-0.916,0.942c-3.424,2.916-3.413,7.184-3.004,10.811
    c0.513,4.541,1.736,9.061,2.426,13.64c0.379,2.524,1.52,4.411,4.206,5.317c3.353,1.129,4.963,4.329,4.225,7.185
    c-0.988,3.824-0.066,6.79,1.566,9.931c0.854,1.647,2.105,3.224,1.161,5.301c-1.327,2.921-0.2,4.957,2.369,6.514
    c1.958,1.187,2.587,2.719,2.536,5.268c-0.078,3.849,2.958,6.383,5.829,8.599c0.492,0.382,1.85,0.19,2.44-0.241
    c0.776-0.569,0.348-1.545-0.111-2.361c-4.209-7.466-3.895-16.521-8.374-23.902c-0.37-0.608-0.616-1.301-0.828-1.983
    c-0.539-1.721-0.803-3.947,1.151-4.366c1.88-0.407,2.977,1.107,3.361,3.46c1.481,9.069,6.116,16.703,11.5,23.992
    c3.178,4.302,7.357,8.617,5.016,14.622c-1.107,2.838-0.19,4.241,1.54,6.097c5.867,6.297,13.97,8.638,21.33,12.277
    c3.44,1.704,7.002,4.071,10.982,1.704c4.241-2.525,7.124-0.137,9.106,2.819c2.199,3.28,5.062,4.861,8.52,6.234
    c4.503,1.786,10.481,1.125,12.547,7.378c0.406,1.231,1.778,2.134,1.702,3.807c-0.086,1.825,0.79,3.071,2.468,4.167
    c3.928,2.565,7.205,6.138,11.95,7.412c2.973,0.802,6.662,5.195,7.944-1.878c0.178-0.972,2.158-2.089,3.708-1.264
    c0.768,0.409,2.685,0.669,1.992,1.772c-1.716,2.748,0.626,4.403,1.291,6.438c1.746,5.33,1.631,10.248-1.895,14.941
    c-3.634,4.84-7.769,9.323-10.052,15.131c-0.933,2.373-1.066,5.082,0.6,5.972c2.913,1.559,1.362,2.441,0.371,3.916
    c-3.675,5.456-3.077,9.143,2.039,13.19c1.527,1.207,2.454,2.848,3.402,4.505c2.992,5.238,3.732,11.533,7.926,16.253
    c1.41,1.584,3.393,2.874,3.973,5.131c1.676,6.522,6.15,10.015,11.996,13.132c11.175,5.953,18.038,12.697,14.281,29.536
    c-0.373,1.675-0.318,3.468,0.729,5.102c0.611,0.951,1.234,2.05,0.916,3.298c-2.165,8.494,0.259,16.664,1.712,24.907
    c0.915,5.2,1.879,10.544,0.626,15.667c-1.693,6.919,1.706,12.967,2.293,19.46c0.013,0.129,0.098,0.303,0.203,0.37
    c4.881,2.954,5.442,8.478,7.832,12.936c1.461,2.723,1.36,4.71-1.331,6.33c-2.659,1.6-2.352,3.003,0.219,4.305
    c1.575,0.798,2.871,1.702,3.663,3.498c2.736,6.201,4.778,12.658,10.984,16.928c3.314,2.283,7.985,4.495,11.673,2.715
    c-1.326,7.058-0.031,6.097,5.427,8.885c4.414,2.251,8.295-0.36,12.394,0.207c0.918,0.129,2.539,0.747,2.676-1.24
    c0.115-1.667-1.315-1.281-2.165-1.532c-5.706-1.694-9.422-7.294-15.65-7.946c-0.137-0.014-0.379-0.119-0.379-0.182
    c-0.026-4.219-2.609-8.251,0.614-12.723c3.085-4.282,2.216-6.426-2.04-9.689c-2.861-2.191-3.043-4.456-0.593-6.913
    c1.235-1.236,1.106-2.987,1.752-4.159c2.389-4.341,0.045-6.657-2.824-9.108c-0.465-0.397-1.087-1.08-0.397-1.872
    c7.733,2.159,7.806,2.107,7.63-6.624c-0.022-1.099,0.323-1.649,1.451-1.647c1.473,0.004,2.988,0.203,4.415-0.062
    c5.494-1.027,11.154-4.712,8.204-11.083c-1.015-2.199-2.384-4.233-3.589-6.336c1.112-0.575,1.755,0.241,2.523,0.575
    c5.013,2.187,8.824,0.804,11.669-3.949c1.999-3.335,3.316-7.132,6.202-9.886c2.75-2.625,1.201-6.655,3.477-9.577
    c2.547-3.265,3.696-7.189,1.879-11.351c-0.781-1.792-0.128-2.991,1.283-4.049c1.392-1.037,2.624-2.353,4.133-3.159
    c3.087-1.649,6.259-4.131,9.49-4.286c5.517-0.262,8.601-1.119,10.358-6.001c3.57-9.921,7.159-19.89,4.84-30.76
    c-0.332-1.557,0.136-3.406,1.154-4.045c4.104-2.582,4.675-7.527,7.737-10.78c3.302-3.507,5.619-7.643,6.113-12.554
    C409.69,670.254,407.5,667.388,402.544,665.864z M261.921,456.163c0,0.002,0.001,0.004,0.001,0.006
    c0.008,0.024,0.017,0.043,0.024,0.067c0.012,0.04-0.005,0.071,0.001,0.11v0.003c0.02,0.13,0.032,0.258,0.005,0.374
    c0.151,0.405,0.317,0.804,0.529,1.182c0.314,0.56,0.046,1.089-0.38,1.343c-0.22,0.235-0.534,0.385-0.931,0.31
    c-0.518-0.099-1.045-0.166-1.569-0.241c-0.001,0-0.003,0-0.004,0c-0.825-0.117-1.652-0.228-2.482-0.325
    c-0.608-0.071-1.213-0.157-1.818-0.238c-0.389-0.053-0.779-0.102-1.165-0.165c-0.903-0.148-1.8-0.325-2.68-0.576
    c-3.139-0.897-4.994,0.575-7.823,1.362c-0.115,0.032-0.222,0.033-0.326,0.028c-0.089-0.008-0.173-0.026-0.253-0.055
    c-0.057-0.021-0.115-0.034-0.166-0.064c-0.13-0.077-0.232-0.193-0.315-0.319c-0.016-0.025-0.031-0.05-0.046-0.075
    c-0.073-0.136-0.126-0.284-0.138-0.437c0-0.004,0.002-0.008,0.001-0.011c-0.009-0.146,0.024-0.289,0.079-0.426
    c0.015-0.036,0.031-0.07,0.051-0.105c0.077-0.138,0.18-0.268,0.341-0.366c3.849-2.331,8.594-4.592,13.103-5.158
    C259.351,451.962,260.943,452.959,261.921,456.163z M266.583,463.642c0.034-0.023,0.064-0.053,0.1-0.075
    c0.252-0.197,0.517-0.373,0.797-0.526c0.326-0.167,0.659-0.321,1.032-0.404c1.768-0.393,4.419-0.321,5.624,1.298
    c1.363,1.833-0.425,3.507-2.306,3.507c-3.171,0.001-3.742,2.787-6.017,4.251c-1.088,0.699-2.856,0.277-3.314-0.958
    c-0.446-1.201,0.183-2.663,0.776-3.704c0.447-0.786,1.734-2.468,2.958-3.125C266.34,463.804,266.469,463.735,266.583,463.642z
     M244.584,476.027c0.346-0.708,0.882-1.256,1.443-1.803c1.037-1.009,1.471-2.514,2.103-3.789c1.866-3.764,4.459-6.41,8.463-7.512
    c0.239-0.124,0.456-0.268,0.705-0.383c1.066-0.495,1.989,0.903,1.239,1.56c-0.094,0.253-0.294,0.466-0.649,0.542
    c-0.198,0.043-0.37,0.109-0.559,0.159c-3.689,2.088-5.049,5.181-6.956,9c-0.693,1.388-2.628,5.632-4.845,4.553
    C244.709,477.956,244.158,476.898,244.584,476.027z M1083.572,745.061c4.014,4.202,1.176,9.188,0.424,13.284
    c-1.78,9.679-6.571,18.01-15.815,22.9c-0.507,0.268-1.09,0.657-1.322,1.139c-3.085,6.448-10.25,9.401-13.431,15.737
    c-0.724,1.445-1.993,2.052-3.241,1.514c-4.145-1.788-6.968,0.771-9.638,2.983c-2.028,1.678-3.368,2.015-5.107-0.071
    c-1.131-1.357-1.907-1.974-4.237-0.839c-4.027,1.956-7.682-1.008-11.04-3.14c-2.414-1.532-0.847-3.554-0.225-5.454
    c0.753-2.293-1.25-4.583-3.47-4.968c-4.933-0.855,0.252-3.181-1.189-5.104c-0.243,0.119-0.861,0.237-1.181,0.608
    c-3.805,4.37-5.027,1.416-6.61-2.042c-2.782-6.078-6.113-7.134-13.026-6.809c-8.182,0.385-15.674,2.572-22.699,6.494
    c-2.637,1.475-5.51,0.949-8.092,1.135c-5.378,0.395-10.064,2.627-14.925,4.268c-3.249,1.092-5.706,0.182-8.21-1.138
    c-1.89-0.996-3.341-3.024-1.111-4.797c4.037-3.21,5.463-7.341,4.184-11.962c-1.878-6.78,0.061-13.331,0.442-19.956
    c0.174-3.046-0.509-5.968,0.252-9.215c1.686-7.171,8.12-7.23,12.768-9.573c3.985-2.011,8.259-3.756,13.128-4.061
    c3.654-0.225,6.555-3.255,8.583-6.768c1.268-2.191,0.955-6.87,5.863-4.855c-0.029-3.472,3.783-3.566,5.19-5.87
    c1.005-1.647,2.04-3.462,3.9-4.448c3.75-1.999,7.461-4.454,11.039,0.419c0.591,0.802,1.981,1.017,3.04,1.522
    c1.289-5.225,3.709-8.317,9.07-10.483c5.677-2.291,10.561-3.13,16.032-0.755c2.469,1.072,3.822,2.101,1.553,5.168
    c-4.114,5.565-3.83,5.956,1.559,10.244c0.904,0.716,1.815,1.52,2.86,1.935c2.656,1.07,5.017,5.547,7.404,3.574
    c3.177-2.629,6.667-6.011,6.348-11.265c-0.254-4.245,1.226-8.253,3.202-11.999c1.254-2.381,3.556-2.486,3.893-0.01
    c0.986,7.247,8.314,11.514,8.431,19.006c0.002,0.278,0.334,0.61,0.256,0.816c-2.543,6.526,1.896,10.516,4.996,15.336
    C1077.052,733.213,1078.762,740.02,1083.572,745.061z M479.977,377.498c-4.118,0.16-7.915,1.568-11.837,2.509
    c-1.119,0.269-2.418,0.514-3.474,0.213c-5.45-1.549-9.483,1.347-13.202,4.412c-3.445,2.836-7.521,4.02-11.525,4.295
    c-7.844,0.542-12.609,4.875-16.636,10.932c-1.578,2.371-2.618,5.237-5.094,6.91c-4.433,2.993-9.109,2.264-15.192-2.196
    c-3.484-2.556-5.033-7.575-3.442-11.964c0.394-1.089,0.308-1.878-0.13-2.766c-1.954-3.966,0.155-6.548,3.069-8.76
    c1.953-1.481,4.236-2.566,6.039-4.198c3.105-2.813,2.686-6.278-0.922-8.367c-1.436-0.828-1.869-1.728-2.006-3.376
    c-0.643-7.753-7.646-12.511-15.44-10.748c-3.532,0.799-6.911-0.143-10.263-1.168c-2.467-0.753-1.456-2.8-1.657-4.396
    c-0.226-1.803,0.74-2.153,2.349-2.214c10.42-0.398,19.877-4.149,29.378-8.081c4.507-1.866,9.798-2.527,14.604-1.469
    c11.829,2.604,23.223,0.151,34.774-1.679c5.084-0.807,10.283-2.346,15.528-0.344c0.861,0.328,2.056,0.085,3.015-0.189
    c9.503-2.724,18.673-1.408,27.302,2.903c3.693,1.845,6.837-0.631,10.201,0.059c1.166,0.24,2.883-0.827,3.406,0.951
    c0.593,2.02-1.692,2.506-2.631,2.885c-2.222,0.898-4.742,1.132-7.165,1.431c-4.83,0.598-6.661,2.518-6.929,7.44
    c-0.031,0.538-0.256,1.152-0.589,1.574c-4.972,6.281-10.237,12.146-19.739,12.309c2.788,2.064,5.327,2.6,6.954,4.629
    c1.483,1.845,1.708,2.817-1.091,3.534c-1.436,0.367-4.683,0.037-3.306,3.483C482.878,376.559,481.442,377.442,479.977,377.498z
     M357.745,388.745c1.763,3.135,3.167,6.315,0.403,9.327c-2.091,2.28-3.823-0.965-6.109-0.859c0.189,1.754,3.532,1.781,2.064,4.037
    c-1.004,1.542-2.583,1.145-4.005,1.138c-5.217-0.031-8.985-2.879-11.738-6.87c-1.675-2.427-2.864-3.432-5.971-2.233
    c-1.669,0.645-3.797,1.937-5.856,0.908c-0.803-0.402-2.096-0.424-2.208-1.791c-0.099-1.24,0.637-1.869,1.612-2.363
    c2.624-1.33,5.371-1.298,8.064-0.444c1.872,0.594,3.061,0.486,4.497-1.197c2.247-2.637,4.982-5.073,8.881-2.757
    c1.385,0.823,2.425-0.096,4.255-0.408c-3.824-1.314-5.214-4.27-6.792-7.061c-2.521-4.463-5.244-5.558-9.827-3.676
    c-1.327,0.545-2.669,0.711-3.854,0.335c-3.613-1.147-7.147-1.922-10.955-0.821c-1.168,0.338-2.705,0.473-3.848-0.375
    c-1.197-0.889-3.41-0.65-3.526-2.722c-0.11-1.975,0.757-3.576,2.439-4.786c3.026-2.176,5.889-4.79,9.75-5.141
    c1.491-0.135,3.723-1.604,4.722,1.435c0.517,1.577,2.459,0.252,3.228-0.022c3.719-1.335,6.653-0.742,9.587,1.951
    c1.81,1.665,4.037,3.211,6.887,1.18c1.207-0.859,3.094-0.613,3.827,0.981c1.613,3.514,4.589,4.402,8.019,5.026
    c2.412,0.441,4.315,1.676,3.554,4.867c-0.667,2.799,1.383,4.021,3.51,5.097c2.42,1.223,5.007,2.531,3.127,5.924
    c-1.781,3.215-4.293,4.554-7.866,2.428C362.034,388.91,360.449,387.655,357.745,388.745z M1070.413,663.605
    c2.817,2.218,7.169,3.034,7.997,7.464c0.104,0.548,0.71,1.091,0.636,1.571c-1.111,7.183,4.399,10.121,8.773,13.783
    c0.773,0.647,1.627,1.201,2.404,1.848c0.954,0.798,1.798,1.911,1.029,3.028c-0.577,0.837-1.89,0.577-2.891,0.256
    c-5.667-1.839-11.862-2.707-14.784-9.171c-0.737-1.635-2.584-2.682-4.321-3.591c-2.386-1.248-3.891-0.722-5.242,1.582
    c-3.05,5.195-8.327,5.837-12.77,1.618c-1.379-1.311-2.474-2.68-4.793-1.804c-1.58,0.599-3.532-0.139-4.272-1.453
    c-0.904-1.592,0.992-2.197,2.013-3.224c2.772-2.782-0.196-5.54-1.76-6.287c-5.274-2.519-9.9-6.727-16.279-6.727
    c-2.836,0-3.333-2.633-2.641-4.417c0.927-2.402,0.051-3.016-1.794-3.922c-1.299-0.642-3.666-0.659-3.517-2.625
    c0.168-2.224,2.799-2.07,4.294-3.024c0.524-0.335,1.44-0.055,2.06-0.055c3.785-0.593,5.121,1.897,5.769,4.714
    c0.297,1.293,0.571,2.594,1.25,3.656c0.716,1.127,1.213,2.547,3.183,0.43c2.066-2.218,5.348-3.296,8.085-4.89
    c0.968-0.565,2.142-0.738,2.962-0.229C1053.563,656.966,1063.171,657.905,1070.413,663.605z M351.442,346.713
    c-2.236-4.203-1.585-5.441,2.933-5.309c4.34,0.128,8.63,1.478,13.06,0.256c-4.254,0.239-8.265-1.483-12.529-1.234
    c-0.927,0.054-2.258,0.343-2.239-1.3c0.02-1.608,1.311-1.251,2.263-1.314c11.92-0.797,23.717-2.984,35.742-2.775
    c4.586,0.08,9.19-1.136,13.8-1.602c0.964-0.098,2.504-0.754,2.912,0.998c0.396,1.7-1.258,1.884-2.138,2.289
    c-8.665,3.973-17.398,7.768-27.144,8.198c-0.677,0.031-1.384,0.385-1.997,0.733c-6.52,3.685-14.137,4.905-20.431,9.046
    c-1.127,0.743-2.437,1.22-3.244,0.654c-3.634-2.554-7.514-2.399-11.551-1.637c-0.568,0.109-1.216,0.14-1.76-0.022
    c-1.995-0.59-5.157-1.168-4.778-3.235c0.397-2.176,3.325-1.314,5.135-0.584c2.6,1.05,4.701-0.637,7.304-0.859
    c-1.159-0.706-3.052-1.24-1.939-2.446C346.617,344.648,349.068,345.95,351.442,346.713z M1018.173,507.581
    c-2.94,0.178-4.7,0.622-5.483,3.795c-0.777,3.163-2.474,1.71-3.39,0.027c-1.215-2.234-2.707-3.341-6.236-2.324
    c3.726,0.217,4.117,2.089,3.274,4.223c-0.688,1.755-2.465,3.208-4.17,2.169c-2.005-1.222-2.889-3.441-0.184-6.091
    c-2.318,0.516-3.943,0.882-5.972,1.336c3.177,1.989,4.683,4.74,4.235,8.222c-0.141,1.127-0.374,2.647-2.109,2.915
    c-1.815,0.282-2.056-0.814-2.484-2.201c-0.366-1.189-1.201-2.365-2.126-3.224c-2.38-2.203-2.707-3.824,0.018-6.308
    c0.816-0.74,0.178-3.087,2.41-4.384c2.833-1.643,5.141-2.95,8.74-3.341c4.124-0.452,7.744-4.216,10.227-8.021
    c1.686-2.573-0.692-4.68-1.673-6.81c-0.992-2.14-2.122-4.097-0.509-6.333c6.381,0.166,11.082,5.451,10.139,11.488
    c-0.29,1.826,0.559,3.28,1.211,4.824C1026.4,503.009,1024.125,507.223,1018.173,507.581z M936.659,644.263
    c-0.131-4.268,1.461-5.739,5.225-5.166c0.536,0.082,1.344,0.642,1.495,0.061c1.408-5.36,8.981-4.908,9.949-10.653
    c0.258-1.539,1.782-1.839,2.952-2.146c2.688-0.71,4.572-2.24,6.072-4.56c2.236-3.449,4.538-3.691,7.422-0.827
    c5.068,5.035,5.428,4.17,1.005,9.708c-1.983,2.48-0.997,4.791,0.659,6.956c2.085,2.727,2.964,4.423-0.569,7.611
    c-3.11,2.805-4.147,8.003-5.851,12.243c-1.932,4.802-3.396,5.221-8.349,3.672c-3.306-1.037-6.977-1.039-10.499-1.205
    c-3.431-0.162-5.694-1.673-6.651-4.912C938.427,651.328,937.528,647.555,936.659,644.263z M922.129,670.175
    c-2.684,0.71-4.834-1.127-6.69-2.999c-4.646-4.677-7.107-10.768-10.651-16.117c-4.677-7.052-8.572-14.878-15.434-20.41
    c-1.852-1.496-4.008-4.485-2.766-6.313c1.502-2.208,4.609-0.254,6.71,0.732c4.039,1.894,7.488,4.323,9.98,8.497
    c2.169,3.634,6.471,5.628,10.105,7.977c1.107,0.716,2.138,1.391,2.619,2.676c1.974,5.254,5.336,9.45,9.378,13.323
    c1.315,1.258,1.215,3.988,1.581,5.346C926.851,666.952,925.167,669.372,922.129,670.175z M986.8,665.892
    c-2.101,0.332-4.25-1.137-4.935-3.494c-0.344-1.164-0.867-2.107-1.698-3.284c-1.541,2.255-1.027,3.928-0.397,5.811
    c0.397,1.174,1.023,2.838-0.765,3.867c-1.203,0.696-2.43,1.183-3.746,0.675c-1.798-0.694-1.436-2.343-1.436-3.795
    c0-0.147,0.084-0.335,0.018-0.434c-3.961-6.187,2.103-11.258,1.956-17.163c-0.139-5.571,3.846-7.689,9.718-6.846
    c2.917,0.418,5.99,0.951,8.677-1.207c0.951-0.761,2.377-0.9,3.231,0.051c0.771,0.857-0.113,1.85-0.542,2.782
    c-1.944,4.227-4.845,5.407-8.904,3.294c-1.913-0.996-3.562-1.449-5.702-0.491c-1.383,0.62-2.451,1.117-2.181,2.719
    c0.29,1.655,1.639,1.802,3.057,1.811c1.909,0.012,3.576-1.381,5.555-0.894c0.657,0.161,1.565-0.205,1.788,0.804
    c0.211,0.949,0.006,1.62-1.103,1.991c-3.875,1.301-3.787,3.789-2.001,6.839c0.415,0.704,0.661,1.712,0.516,2.492
    C987.618,662.973,989.119,665.526,986.8,665.892z M717.691,697.268c1.299,2.598,1.991,5.389,2.269,8.55
    c-0.937,5.354-3.136,10.561-4.967,15.839c-2.214,6.379-4.984,12.509-5.896,19.34c-1.046,7.84-10.205,9.847-14.436,6.799
    c-3.525-2.537-1.97-6.357-3.032-9.481c-1.326-3.891,1.665-6.811,3.496-9.847c1.24-2.062,1.846-3.777,1.13-6.428
    c-0.8-2.966-0.968-6.359,0.693-9.411c0.716-1.313,1.549-2.095,3.089-2.598c6.596-2.161,11.177-6.75,14.391-12.775
    c0.37-0.698-0.018-1.769,1.275-1.917C717.216,695.161,717.3,696.481,717.691,697.268z M525.383,421.724
    c-0.327-2.392,1.193-5.061,4.063-5.952c2.922-0.91,3.294,3.141,6.138,3.369c0.958,0.076-1.582,2.552-2.164,4.079
    c3.873,1.135,5.475,4.223,6.913,7.662c0.865,2.07,1.35,5.012,4.91,4.331c0.947-0.182,1.61,0.653,1.932,1.499
    c0.429,1.114-3.908,7.242-5.123,7.272c-4.949,0.12-9.71,1.372-14.518,2.356c-1.45,0.295-3.484,1.216-3.985-0.867
    c-0.422-1.779,1.686-1.905,2.981-2.375c1.07-0.388,2.132-0.791,3.39-1.261c-1.67-0.938-4.959-0.599-4.45-2.427
    c0.587-2.113,0.923-5.366,4.164-5.986c1.15-0.22,2.328-0.273,2.013-1.933c-0.276-1.437-0.507-2.495-2.586-2.666
    C524.614,428.46,525.729,424.239,525.383,421.724z M1123.6,808.829c1.058,1.193,2.684,2.384,2.316,5
    c-0.119,0.27-0.246,1.359-0.847,1.782c-3.901,2.746-7.705,5.767-11.962,7.815c-2.093,1.005-4.126,1.815-5.853,3.429
    c-4.114,3.842-8.666,6.77-14.646,6.533c-1.162-0.045-2.651-0.581-2.983,1.547c-0.27,1.706-2.04,1.344-2.791,0.794
    c-0.998-0.732-1.109-1.984,0.634-2.396c0.268-0.063,0.743-0.319,0.737-0.337c-2.388-6.31,3.196-7.007,6.541-8.584
    c8.988-4.235,18.264-7.883,25.893-14.508C1121.54,809.12,1122.753,807.876,1123.6,808.829z M981.828,581.743
    c-1.768,4.298-0.192,7.034,4.466,7.328c2.375,0.149,4.016,0.898,4.286,3.374c0.205,1.929,0.031,3.99-2.719,2.275
    c-1.809-1.129-3.517-0.796-5.233-0.258c-2.696,0.847,0.023,2.956-0.816,4.282c-5.027-0.526-5.401-1.209-3.828-6.449
    c0.501-1.661-1.043-2.355-1.968-3.085c-3.738-2.958-5.258-6.254-2.662-10.81c0.589-1.037,0.337-2.556,0.454-3.855
    c0.284-3.139,1.856-3.957,4.71-2.445C981.202,573.527,983.027,578.838,981.828,581.743z M252.77,566.033
    c-0.252,0.053-0.838-0.397-0.911-0.698c-1.471-6.174-6.877-6.985-11.682-8.46c-2.35-0.722-4.138,1.526-6.355,1.839
    c-1.195,0.168-2.651,1.156-3.269-0.794c-0.503-1.58,0.497-2.273,1.782-2.965c3.029-1.632,6.103-2.817,8.543-2.164
    c7.376-0.061,12.961,1.671,17.987,5.683c2.065,1.653,4.996,2.179,7.424,3.427c1.121,0.579,2.351,1.475,2.177,3.046
    c-0.207,1.872-1.886,0.782-2.796,1.256C261.341,568.447,257.087,565.102,252.77,566.033z M1149.79,798.054
    c0.63,1.655-0.247,3.787-1.403,4.303c-6.042,2.699-10.064,8.268-16.044,10.968c-1.899,0.857-5.047-0.557-4.292-1.134
    c3.789-2.911,0.954-8.321,4.74-10.802c0.961-0.632,1.993-1.174,3.034-1.665c3.1-1.449,3.945-3.924,2.987-6.995
    c-0.368-1.179-0.528-2.328-0.356-3.445c0.19-1.25-1.111-3.437,1.166-3.558c2.205-0.117,3.226,1.653,3.228,4.192
    c-1.209,2.57-0.522,4.967,1.927,6.89c0.559,0.436,0.963,1.24,1.823,1.009C1147.725,797.516,1149.037,796.076,1149.79,798.054z
     M944.28,679.989c-5.489-2.071-11.334-0.575-16.565-2.893c-1.759-0.777-4.982-0.37-4.225-3.666c0.644-2.807,3.327-2.772,5.199-2.934
    c1.608,0.104,2.692,0.241,3.85,0.602c4.219,1.318,8.405,3.464,13.047,1.268c0.812-0.385,1.992-0.182,2.872,0.622
    c2.6,2.385,6.144,2.915,9.131,4.564c1.281,0.71,3.56,0.777,2.774,3.04c-0.667,1.929-2.69,1.694-4.208,1.336
    C952.208,680.991,947.819,681.321,944.28,679.989z M1082.83,670.776c0.17-1.715,2.475-1.667,3.859-1.907
    c1.493-0.262,2.823-0.736,3.979-1.563c4.761-3.411,4.746-4.282-0.145-7.378c-1.107-0.704-1.878-1.406-1.571-2.76
    c0.225-0.978,1.137-0.661,1.919-0.857c3.468,1.095,6.694,2.789,8.398,6.209c0.481,0.968,0.921,2.65-1.385,3.834
    c-2.298,1.185-3.382,4.333-5.845,5.898c-1.628,1.037-3.316,2.486-5.125,1.624C1085.422,673.157,1082.588,673.266,1082.83,670.776z
     M1101.4,668.605c0.826-1.193,1.933-1.084,2.543,0.403c1.154,2.795,2.887,4.241,6.228,4.454c1.751,0.111,3.881,2.05,3.288,4.749
    c-0.694,0.632-0.086,1.09-0.047,1.593c0.096,1.309,2.729,2.942-0.004,3.863c-2.678,0.904-4.006-2.091-3.955-3.421
    c0.133-3.464-0.27-4.765-4.147-3.678C1103.194,677.161,1100.017,670.602,1101.4,668.605z M253.17,543.859
    c0.786-1.297,2.394-2.132,0.47-4.127c-0.962-1-0.202-3.263,2.234-2.795c2.344,0.448,5.882-1.677,6.478,2.236
    c-0.07,1.721,0.072,2.588-1.529,3.2c-2.073,0.794-4.594,1.97-2.982,5.276c0.388,0.796-0.183,1.886-1.366,1.567
    c-1.921-0.51-3.229-1.86-3.791-3.767C252.549,544.999,252.886,544.328,253.17,543.859z M998.666,607.683
    c0.972,2.539,1.911,5.148,2.989,7.582c1.915,4.333-1.096,6.289-3.31,8.188c-2.721,2.332-5.751,1.207-6.678-2.236
    c-0.763-2.836-1.457-4.867-5.008-3.838c-0.853,0.247-2.369,0.344-2.146-1.281c0.215-1.565,0.763-3.214,2.432-3.854
    c0.767-0.293,1.743-0.051,1.526-0.051c4.566,0.485,6.226-1.667,7.373-4.405c0.323-0.769,0.045-1.797,1.358-1.825
    C998.465,605.938,998.351,606.861,998.666,607.683z M320.067,354.488c1.751-1.892,4.747-3.763,6.979-2.272
    c5.485,3.661,11.357,2.079,17.107,2.41c2.345,0.134,6.014-0.877,6.324,1.991c0.286,2.624-3.752,2.767-5.823,4.087
    c-0.43,0.275-1.151,0.095-1.738,0.123c0.006-0.106,0.014-0.212,0.02-0.318c-7.394-0.492-14.815-0.754-22.172-1.579
    C317.109,358.521,319.083,355.552,320.067,354.488z M981.726,598.877c0.037-0.043,0.057-0.088,0.086-0.133
    c0.016,0.002,0.027,0.004,0.043,0.006l-0.006,0.006c-0.016,0.037-0.025,0.074-0.039,0.111
    C981.783,598.873,981.754,598.871,981.726,598.877z M981.81,598.867c1.721-0.336,4.075,1.072,4.773-2.142
    c0.206-0.933,2.246-0.951,2.94,0.127c0.606,0.941-0.644,1.436-1.17,2.148c-1.179,1.604-5.062,3.703-0.217,5.894
    c1.536,0.695,2.158,2.212,0.972,4.071c-0.732,1.144-1.225,2.688-2.778,2.134c-1.643-0.583-1.866-2.291-1.941-3.957
    c-0.031-0.659,1.416-1.632-0.195-2.025C980.265,604.15,980.791,601.619,981.81,598.867z M314.532,592.65
    c-0.826,2.373-2.889,4.278-2.694,7.042c-2.793,0.288-3.287-1.072-2.085-3.325c1.492-2.795,3.39-5.393,4.675-8.275
    c1.095-2.453-0.623-4.131-2.473-5.618c-0.838-0.677-2.597,0.196-2.664-1.665c-0.033-0.888,0.314-1.41,1.219-1.379
    c1.587,0.059,4.095-0.761,4.56,0.479c0.966,2.576,2.596,5.117,2.754,7.732C317.921,589.219,315.242,590.616,314.532,592.65z
     M311.838,599.814c-0.004-0.041,0.003-0.08,0.001-0.121c0.045-0.004,0.078,0,0.125-0.006L311.838,599.814z M506.506,389.862
    c0.115,1.649-0.722,2.149-1.563,2.806c-4.382,3.422-9.773,4.185-14.898,5.1c-3.212,0.574-5.982-2.979-9.657-2.958
    c-1.051,0.006,0.69-4.598,2.58-5.415c5.704-2.468,11.956-1.456,17.86-2.811C503.406,385.992,505.401,387.862,506.506,389.862z
     M263.323,571.405c0.08-0.824,0.757-0.804,1.302-0.824c1.467-0.059,2.937-0.02,4.404-0.061c0.686-0.022,1.526,0.195,1.936-0.585
    c2.004-3.818,1.992-3.828,6.088-3.824c3.264-0.573,6.552,0.765,9.632,2.819c0.75,0.501,1.33,1.121,1.285,2.15
    c-0.043,0.978-0.741,0.96-1.428,1.242c-6.324,2.631-12.948,1.686-19.484,1.674c-0.96,0-1.911-0.597-2.879-0.872
    C263.242,572.852,263.25,572.154,263.323,571.405z M1012.713,481.077c-4.566-0.685-6.979-4.343-5.008-8.349
    c1.13-2.293-0.295-3.536-0.912-5.206c-0.366-0.987-0.614-2.215,0.219-2.886c0.872-0.704,1.856-0.139,2.701,0.641
    c3.378,3.109,7.574,4.484,11.878,5.797c2.566,0.782,3.695,1.688,0.841,4.692c-3.243,3.419-5.947,2.224-9.239,1.307
    C1012.338,478.316,1012.913,479.749,1012.713,481.077z M1012.821,481.101c-0.033,0.044-0.049,0.086-0.08,0.129
    c-0.016,0-0.029-0.003-0.045-0.003c0.01-0.05,0.012-0.101,0.018-0.151C1012.752,481.082,1012.783,481.096,1012.821,481.101z
     M360.036,441.943c0.007-0.006-0.128,0.121-0.128,0.121c2.252,0.252,5.176,0.087,2.158,3.551c-1.219,1.396-0.168,2.152,0.918,2.663
    c1.023,0.484,2.183,0.677,3.274,1.026c2.326,0.746,2.754,3.046,2.956,4.795c0.214,1.842-1.998,1.824-3.467,2.336
    c-5.637,1.968-11.202,0.162-16.793-0.066c-0.722-0.033-1.502-0.03-1.607-1.023c-0.081-0.771,0.102-1.466,0.766-1.936
    C352.663,450.193,355.876,445.582,360.036,441.943z M1145.673,716.732c-0.362-2.917-2.698-5.068-2.872-6.98
    c0.061-2.811-0.188-5.002,2.666-3.085c0.475,0.319,0.644,0.303,0.833-0.139c0.111-0.262,0.045-0.642,0.211-0.837
    c0.827-0.962,1.694-1.006,2.408,0.115c0.958,1.508,0.147,9.953-1.133,11.193C1147.076,717.69,1145.782,717.632,1145.673,716.732z
     M997.569,600.017c0.804,0.783,1.352,1.719,0.831,2.703c-0.456,0.863-1.565,0.55-2.408,0.532c-0.802-0.018-1.596-0.192-2.609-0.329
    c0.291,0.964,0.644,1.721,0.718,2.508c0.076,0.792,0.374,1.85-0.806,2.167c-1.156,0.313-2.559-0.43-2.377-1.24
    c0.37-1.661-3.678-3.985,0.733-5.065c1-0.244-0.127-1.148-0.246-1.708c-0.223-1.041-1.553-2.134-0.291-3.057
    c1.107-0.812,2.369-0.033,3.634,0.391C996.436,597.486,996.579,599.057,997.569,600.017z M510.784,429.955
    c3.824-1.288,6.878-4.831,11.565-3.727c1.641,0.387,2.758,0.754,2.823,3.38c-1.937,2.158-1.634,6.355-3.404,8.618
    c-1.87,2.39-6.275,3.413-9.71,3.786c-3.224,0.352-3.226-2.736-2.373-4.999c0.61-1.626,1.43-2.96,0.524-4.758
    C509.886,431.609,509.765,430.296,510.784,429.955z M1126.45,691.425c-0.665,0.64-1.806,0.509-2.296-0.28
    c-1.279-2.054-3.233-2.856-5.369-3.64c-0.984-0.362-1.962-1.469-1.51-2.848c0.45-1.385,1.862-1.047,2.588-0.732
    c2.04,0.886,1.667-0.477,1.728-1.553c0.055-0.998-0.157-2.193,1.483-2.048c0.96,0.041,0.949,0.784,1.221,1.467
    c1.005,2.49,0.743,5.373,2.51,7.642C1127.098,689.809,1126.859,691.032,1126.45,691.425z M988.467,687.824
    c-1.745-1.512,0.591-2.778,1.319-3.95c2.613-4.202,7.989-5.634,12.539-3.668c0.667,0.292,1.391,0.301,1.359,0.137
    c0.296,2.291-0.442,2.531-1.447,2.57c-3.572,0.139-6.467,1.891-9.02,4.149C991.667,688.434,989.707,688.897,988.467,687.824z
     M284.101,365.972c-0.331-0.368-0.581-1.181-0.4-1.572c0.855-1.85,2.587-0.515,3.697-0.922c3.324,0.729,4.928-2.818,7.965-2.758
    c1.899,0.039,4.726-2.053,5.518-0.122c0.961,2.343-1.024,5.076-3.1,6.674C293.226,370.775,287.84,370.152,284.101,365.972z
     M1039.978,811.661c0.471,1.029-0.19,1.827-0.714,2.776c-2.371,4.303-6.555,5.823-10.451,7.617c-1.911-0.685-4.235-0.825-3.58-3.239
    c0.765-2.789,1.915-5.405,1.839-8.429c-0.035-1.434,1.786-1.129,2.496-0.792c2.42,1.144,4.791,1.516,7.404,0.794
    C1038.153,810.063,1039.402,810.413,1039.978,811.661z M1126.894,725.087c0.411-0.97-0.886-2.744,1.099-3.143
    c1.62-0.327,2.04,1.115,2.739,2.251c2.107,3.447,4.29,6.866,7.506,9.438c1.211,0.97,1.344,2.32,0.843,3.558
    c-0.374,0.927-1.571,0.692-2.371,0.52C1133.881,737.103,1126.941,728.174,1126.894,725.087z M328.771,343.9
    c-0.081-0.743,0.075-1.272,0.905-1.716c3.72-1.997,7.53-3.771,11.852-3.4c1.618,0.139,3.569,0.682,3.918,2.801
    c0.324,1.967-1.468,2.367-2.716,2.89c-1.802,0.754-3.057,2.933-4.591,2.381c-3.149-0.47-5.435-0.752-7.695-1.175
    C329.561,345.517,328.88,344.886,328.771,343.9z M837.108,616.491c1.223,3.496-0.481,5.108-3.474,5.996
    c-3.253,0.962-3.809-0.738-4.216-3.634c-0.442-3.171-1.354-6.184,0.063-9.313c0.33-0.732-0.018-1.878,1.361-1.796
    c1.688-0.031,1.823,1.567,2.684,2.433C835.338,611.996,836.286,614.138,837.108,616.491z M963.325,680.832
    c1.133-2.236,3.318-1.154,5.019-1.518c1.06,0.076,2.099,0.033,3.073,0.256c0.906,0.207,1.389,0.972,1.453,1.927
    c0.088,1.227-0.745,1.326-1.676,1.438c-0.694,0.082-1.383,0.319-2.042,0.569c-1.927,0.732-3.693,0.253-5.358-0.72
    C963.069,682.364,963.018,681.443,963.325,680.832z M295.453,570.738c1.626,0.565,2.796,2.449,4.205,3.801
    c-0.343,0.514-0.753,1.156-0.765,1.146c-2.61-1.608-5.79,0.135-8.341-1.387c-0.956-0.569-1.12-1.735-0.378-2.7
    C291.625,569.711,293.925,570.204,295.453,570.738z M1009.624,639.654c-1.209,1.719,0.193,3.318,0.338,4.069
    c0.276,2.32-0.338,3.613-1.305,4.368c-0.874,0.685-2.22,0.561-3.204-0.364c-1.089-1.025-2.202-2.032-1.128-3.715
    c1.14-1.788,0.145-3.898,1.128-5.896c1.18-2.396,3.067-2.621,4.634-1.884C1012.064,637.16,1010.432,638.502,1009.624,639.654z
     M301.43,365.59c-0.653-1.484,0.397-2.648,1.523-3.277c3.461-1.931,7.208-2.954,11.168-2.096c0.848,0.184,2.464,0.491,2.035,2.677
    c-0.542,1.461-2.244,2.16-3.914,2.246c-2.494,0.128-4.814,0.346-7.077,1.631C303.888,367.498,302.156,367.238,301.43,365.59z
     M1006.539,658.826c0.311-2.519,2.195-1.166,3.435-1.649c0.794,0.117,1.995-0.066,2.443,0.43c1.074,1.187,4.041-0.575,3.666,1.919
    c-0.319,2.085-2.866,1.815-4.593,2.113c-0.671,0.115-1.549,0.02-2.095-0.346C1008.367,660.608,1006.248,661.218,1006.539,658.826z
     M966.107,609.929c2.142-2.543,3.816-5.487,6.451-7.627c0.765-0.622,1.518-1,2.373-0.622c1.029,0.454,0.432,1.543,0.638,2.103
    c0.09,3.341-4.084,8.646-7.103,9.155c-0.821,0.139-1.972,0.401-2.39-0.503C965.75,611.73,965.672,610.439,966.107,609.929z
     M258.612,573.692c0.157,2.295-2.254,0.78-3.269,1.268c-2.269-0.018-4.798,0.295-5.298-2.486c-0.502-2.784,1.942-1.845,3.292-1.895
    C255.715,570.484,258.413,570.783,258.612,573.692z M975.664,550.173c-0.286,0.919-0.491,2.075-0.986,3.087
    c-0.837,1.694,0.734,5.338-3.261,4.536c-2.433-0.491-4.366-5.006-3.451-7.466c0.293-0.802,0.88-1.491,1.215-2.279
    c0.788-1.856,1.935-3.709,4.106-3.05C975.423,545.649,975.345,548.035,975.664,550.173z M804.92,626.47
    c-0.859,1.326,1.412,4.192-2.05,4.168c-1.991-0.014-3.634-0.798-3.408-3.396c0.211-2.38,2.838-3.849,3.742-4.108
    C805.796,622.393,804.249,625.204,804.92,626.47z M691.604,695.476c-0.391-0.538-0.205-1.768,1.07-1.878
    c0.843-0.072,1.356,0.235,1.469,1.144c0.147,1.152-0.356,2.917,2.04,1.81c1.162-0.542,2.979-1.24,3.257,1.158
    c0.334,2.86-1.945,1.712-2.672,1.929C692.903,700.231,692.837,697.156,691.604,695.476z M544.436,491.747
    c-1.324-0.072-1.852-1.222-1.481-1.391c2.363-1.071,2.596-4.641,5.647-4.749c0.804-0.026,1.88-0.277,2.115,0.933
    c0.194,1,0.315,2.122-0.659,2.824C548.27,490.651,545.386,489.21,544.436,491.747z M620.341,506.587
    c-0.931-0.385-2.519-0.565-2.187-2.224c0.354-1.77,1.87-0.876,2.885-1.056c0.714-0.127,1.467-0.023,2.205-0.029
    c1.872,0.078,3.75-0.184,5.549,0.796c0.761,0.413,1.745,0.338,1.61,1.571c-0.129,1.172-0.798,1.872-1.95,2.011
    C625.664,507.995,622.919,507.659,620.341,506.587z M938.394,566.759c-0.151,3.785-3.464,7.617-5.628,7.273
    c-2.165-0.34-3.323-1.721-3.19-3.953c0.235-3.938,3.165-3.953,5.992-3.94C936.708,566.145,938.351,565.585,938.394,566.759z
     M132.388,425.448c0.349-1.603,1.581-2.673,3.485-2.697c2.26-0.03,1.474,1.64,1.782,2.904c-0.702,1.173-0.355,3.456-2.609,3.155
    C133.433,428.597,131.98,427.309,132.388,425.448z M1114.547,678.471c-0.139-0.896,0.008-1.825,1.854-1.655
    c1.584,0.972,3.437,2.33,4.213,4.626c0.372,1.107-0.524,1.553-1.541,1.451C1116.415,682.616,1114.938,681.046,1114.547,678.471z
     M572.089,477.111c-0.313,1.252,0.755,3.208-1.837,3.157c-2.189-0.046-2.576-1.343-2.65-3.199c-0.092-2.26,1.536-2.772,3.046-2.863
    C572.93,474.065,571.667,476.097,572.089,477.111z M569.45,481.21c3.687,0.045,2.177,3.04,2.635,4.867
    c0.303,2.471-0.178,4.989-2.997,4.622c-2.942-0.382-2.692-3.747-3.097-5.938C565.595,482.618,567.211,481.183,569.45,481.21z
     M980.715,683.821c-2.582-0.025-4.235-1.117-4.119-3.314c0.131-2.531,2.4-1.954,4.096-1.972c0.143,0,0.342-0.025,0.426,0.057
    c1.665,1.633,6.103-0.162,5.616,3.226C986.409,684.08,982.407,682.568,980.715,683.821z M975.545,683.634
    c1.604,0.669,3.623,0.526,3.562,3.016c-0.023,1.045-0.511,1.919-1.487,1.465c-1.667-0.779-4.26-0.632-4.577-3.061
    C972.781,683.053,974.759,684.281,975.545,683.634z M456.993,584.969c-0.272,2.492-2.246,1.054-3.376,1.539
    c-0.986-0.352-2.848,0.616-2.664-1.289c0.221-2.291,2.633-1.698,4.086-2.208C456.453,582.514,457.155,583.474,456.993,584.969z
     M890.813,582.406c0.751,3.339,1.491,6.976,3.369,9.704c3.799,5.512,1.944,11.085,1.127,16.619
    c-0.431,2.905-0.362,5.074,2.459,6.504c3.795,1.921,5.428,5.039,6.316,9.215c1.162,5.448,2.95,10.896,8.175,14.16
    c2.158,1.346,4.411,4.079,6.897,2.381c2.242-1.528,0.241-4.503-0.385-6.5c-1.688-5.372-2.545-11.177-8.239-14.634
    c-3.138-1.907-5.256-5.031-7.169-8.691c-2.113-4.036-2.676-7.06-1.33-11.066c0.436-1.303,0.084-2.929-0.145-4.368
    c-0.102-0.653-0.933-1.381-0.168-1.886c0.47-0.311,1.727-0.274,1.995,0.084c2.639,3.521,7.68,4.168,9.787,8.511
    c0.612,1.26,1.43,4.092,3.873,3.4c2.993-0.841,2.948,0.043,2.563,2.615c-0.497,3.3,1.285,4.65,3.562,2.965
    c3.82-2.821,6.625-6.846,11.175-8.942c1.14-0.524,2.058-2.989,2.005-5.062c-0.092-3.224-0.561-6.383-1.878-9.278
    c-2.222-4.871-4.984-9.12-9.354-12.768c-7.224-6.023-6.839-9.63,0.374-13.892c2.594-1.536,5.428-2.287,6.529,2.124
    c0.385,1.559,2.308,2.608,3.236,0.882c3.233-6.007,9.272-5.992,14.634-7.163c7.756-1.694,12.914-6.046,15.279-13.552
    c1.207-3.84,2.124-7.784,2.973-11.719c0.513-2.379,2.901-5.041-1.496-6.845c-1.676-0.687,0.771-4.662-2.046-5.976
    c-3.963-1.853-6.035-5.256-7.605-9.067c-0.42-1.029-1.109-1.579-2.075-2.003c-3.959-1.743-2.042-4-0.26-5.851
    c1.162-1.205,2.962-1.772,4.323-2.827c1.225-0.948,2.297-2.411,0.053-3.263c-2.741-1.041-5.483-2.693-8.662-1.227
    c-1.945,0.897-7.572-1.49-8.423-3.395c-0.395-0.882-0.231-1.411,0.7-1.598c2.619-0.523,3.372-3.021,4.933-4.65
    c1.794-1.872,2.995-2.162,3.795,0.846c1.467,5.513,1.624,5.516,6.884,2.684c2.737-1.471,5.914-0.319,6.029,1.942
    c0.201,3.856,2.316,4.28,4.99,5.225c3.026,1.065,4.836,3.57,5.955,6.565c0.606,1.616,1.346,3.183,2.009,4.781
    c0.824,1.987,1.95,2.748,3.959,1.277c0.919-0.675,2.022-1.174,3.112-1.52c3.732-1.191,3.859-3.357,2.484-6.664
    c-2.195-5.275-7.148-7.322-11.26-10.317c-1.782-1.3-3.184-1.884-0.278-3.292c2.492-1.21,2.968-3.109,2.252-5.745
    c-0.968-3.593,1.655-5.993,5.358-5.445c3.036,0.449,5.33-0.767,6.543-3.792c2.075-5.183,3.66-10.196,3.216-16.141
    c-0.364-4.851,0.323-9.35-4.342-12.522c-1.455-0.988-2.293-2.589-2.383-4.452c6.471,4.753,10.855,11.112,14.078,18.347
    c0.777,1.748,1.692,3.343,3.181,4.598c1.704,1.436,3.995,1.415,5.264,0.374c1.397-1.146-0.246-2.937-1.158-4.105
    c-1.256-1.607-2.872-2.928-4.264-4.436c-0.338-0.367-1.518-0.967-0.26-1.511c3.758-1.628,1.62-3.373,0.025-4.791
    c-4.671-4.148-10.414-6.977-13.791-12.735c-1.475-2.518-4.169-1.497-4.93,1.414c-1.948-1.235-3.879-2.456-5.549-4.113
    c-1.866-1.845-4.225-2.812-6.768-1.526c-4.104,2.078-7.034-0.667-10.338-2.132c-1.093-0.485-0.63-0.908-0.419-1.567
    c0.96-3.002,1.751-6.064,2.831-9.02c1.17-3.183,5.999-6.335,9.139-5.32c6.753,2.184,13.933-2.717,20.51,1.567
    c0.966,0.627,2.5-0.378,3.754-0.62c1.87-0.361,2.4-1.431,1.807-2.699c-1.24-2.648-0.665-5.368,1.224-6.63
    c1.972-1.316,4.716,0.162,6.856,1.23c5.761,2.879,6.432,2.643,7.656-3.799c2.267,1.301,4.311,3.196,3.609,5.416
    c-0.833,2.636-0.636,5.816-2.024,7.843c-3.715,5.402-0.188,8.467,2.425,12.537c4.047,6.307,11.659,8.676,15.518,15.103
    c1.058,1.773,3.333,1.135,5.17,0.129c2.075-1.137,1.275-2.463,0.604-3.974c-0.434-0.969-0.166-2.528-0.436-3.071
    c-1.307-2.657,1.745-4.928,0.71-6.885c-2.492-4.711-3.47-10.794-10.356-12.073c-1.737-0.322-3.435-2.609-2.862-5.017
    c0.264-1.119,10.522-3.975,11.682-3.219c4.167,2.717,6.117,0.314,8.192-2.962c1.585-2.494,4.018-4.054,7.271-3.014
    c2.011,0.643,3.531-0.096,4.079-1.958c0.647-2.202-1.338-2.629-2.825-3.02c-3.413-0.901-6.442-2.599-10.045-4.189
    c1.547-0.504,3.73,0.195,3.122-1.965c-0.849-2.995,1.516-2.03,2.22-1.648c3.75,2.042,8.1,1.989,11.952,3.66
    c2.17,0.942,4.458,0.931,6.757-0.162c1.256-0.598,1.608-1.281,1.047-2.343c-2.093-3.946-8.941-6.768-13.775-5.898
    c-1.254,0.226-2.543,0.267-3.842-0.433c-8.253-4.443-17.775-4.344-26.5-7.276c-6.263-2.107-13.012-2.775-19.708-3.015
    c-3.14-0.114-6.633-2.883-9.008,1.635c-0.385,0.732-1.547-0.068-2.359-0.169c-5.291-0.662-10.516-2.3-15.982-0.525
    c-1.8,0.584-4.002,0.019-6.054-0.237c-4.278-0.531-7.416-4.617-11.774-3.917c-3.944,0.634-7.891-0.275-11.563,0.154
    c-9.522,1.109-17.282-4.934-26.269-5.265c-5.158-0.192-10.25-2.587-15.494-0.441c-0.9,0.367-2.208,0.081-1.97,1.669
    c0.503,3.325-1.905,2.922-3.887,3.064c-3.359,0.235-7.025-2.5-9.822-0.701c-5.44,3.491-8.945,0.015-12.689-2.5
    c-3.594-2.415-7.343-4.834-11.612-3.94c-9.902,2.074-19.743-0.545-29.669,0.011c-5.35,0.299-11.126-2.319-17.028,0.142
    c0.409-2.132,1.901-2.038,2.793-2.709c1.168-0.878,3.142-0.693,3.147-2.995c0.004-2.216-1.804-2.619-3.081-3.268
    c-4.714-2.397-9.896-2.416-14.886-1.606c-2.236,0.363-3.627,0.218-5.549-0.922c-4.485-2.656-9.057-3.583-13.611,0.467
    c-1.164,1.032-2.336,3.387-4.237,2.677c-6.226-2.325-12.032,0.632-18.016,1.115c-2.058,0.165-5.36,0.096-4.18,4.176
    c0.284,0.981-0.505,1.434-2.242,1.19c-4.526-0.636-8.092,0.979-11.482,3.932c-2.302,2.006-4.957,3.915-8.533,3.018
    c-2.913-0.732-4.155,0.757-3.596,4.337c-1.571-2.189-2.905-3.441-3.951-5.024c-1.903-2.87-4.943-3.557-8.163-2.578
    c-2.476,0.754-5.448,1.637-5.46,4.775c-0.012,3.174,1.809,5.538,4.996,6.836c1.289,0.523,3.134,0.731,3.985,3.46
    c-5.237-2.543-10.362-2.92-15.244-4.325c-1.892-0.543-3.918-1.054-5.473,0.187c-3.214,2.559-7.146,2.033-10.733,2.788
    c-2.588,0.547-5.158,0.707-8.186-0.419c-4.026-1.495-8.435,0.706-12.251,3.034c-2.576,1.571-5.184,4.349-7.472-0.724
    c-0.843-1.867-3.636-1.13-5.325-0.686c-2.027,0.532-1.002,2.284-0.46,3.611c0.716,1.761-0.217,1.926-1.729,2.517
    c-2.582,1.007-6.874-0.367-7.126,4.633c-0.049,0.927-2.146,0.665-3.231,0.43c-1.117-0.239-2.126-0.967-3.359-0.76
    c-0.675,0.112-1.573-0.213-1.827,0.747c-0.245,0.917-0.1,1.652,1.029,2.044c0.593,0.206,1.532,0.44,1.502,1.523
    c-3.273,0.505-5.96-0.915-7.85-3.057c-1.85-2.095-2.782-4.994-5.616-6.445c3.016,0.354,5.829,0.915,8.554,1.768
    c3.578,1.123,7.116,1.252,10.63-0.028c1.246-0.455,3.153-0.573,3.024-2.516c-0.127-1.892-1.459-3.123-3.22-3.673
    c-4.12-1.281-8.454-2.063-12.361-3.807c-3.181-1.417-6.512,0.417-9.534-1.389c-8.861-5.297-18.509-5.465-28.266-3.646
    c-2.909,0.543-5.53,2.914-8.419,3.238c-8.337,0.934-12.308,7.436-16.75,12.918c-3.807,4.694-8.306,8.191-13.666,10.097
    c-7.613,2.707-8.488,3.289-7.688,11.121c0.698,6.838,5.778,9.575,12.091,6.515c3.652-1.77,5.765-0.711,7.329,3.935
    c1.287,3.831-2.334,2.996-4.149,4.594c-0.102-1.443-0.104-2.308-0.239-3.151c-0.172-1.082,0.628-2.507-0.688-3.184
    c-1.307-0.673-2.05,0.686-3.044,1.221c-3.267,1.755-3.852,4.246-2.803,7.665c1.487,4.85,0.798,5.839-3.848,5.934
    c-1.96,0.039-4.448,0.255-5.225,1.501c-3.666,5.892-11.17,7.065-14.978,12.667c-0.516,0.759-1.725,1.598-2.527,1.52
    c-4.669-0.47-8.075,4.186-12.916,3.004c-1.463-0.358-2.424,0.614-2.633,2.246c-0.19,1.484,0.602,2.1,1.784,2.558
    c1.477,0.569,3.012,1.039,4.395,1.788c3.101,1.676,4.01,5.863,2.619,11.151c-0.857,3.262-3.202,3.792-6.082,3.434
    c-4.744-0.594-9.474-1.427-14.235-1.692c-3.854-0.213-5.99,2.146-5.16,5.674c0.596,2.534,0.221,4.96-0.483,7.072
    c-1.313,3.928-1.254,7.852-1.377,11.837c-0.057,1.86,0.763,2.88,2.564,2.73c2.704-0.229,4.703,1,6.782,2.482
    c1.369,0.98,3.112,1.837,4.873,0.575c2.074-1.483,4.433-1.209,6.766-1.26c3.862-0.082,10.532-4.084,10.663-7.166
    c0.319-7.407,6.003-9.974,11.042-13.023c1.348-0.816,1.733-1.49,1.444-2.579c-0.916-3.422,1.944-4.144,3.57-3.54
    c5.176,1.927,9.029-0.467,12.948-2.979c1.782-1.144,3.787-1.403,4.505,0.503c2.641,6.988,8.953,9.45,14.732,12.58
    c2.602,1.408,4.532,3.269,4.959,6.197c0.372,2.555,0.307,5.05-3.617,3.341c-2.473-1.078-5.864-0.5-6.561,1.372
    c-0.986,2.649,2.807,2.371,4.362,3.593c2.913,2.288,5.123,2.335,5.847-1.956c0.123-0.72,0.139-1.343,1.088-1.629
    c4.493-1.357,5.166-4.481,3.253-8.779c2.428,0.096,5.186,2.38,6.074-0.292c0.845-2.549-2.516-2.576-4.057-3.662
    c-0.587-0.416-1.252-0.756-1.931-0.997c-6.471-2.302-9.573-8.64-14.806-12.439c-0.395-0.285-1.536-1.71-0.147-2.543
    c0.56-0.334,1.968-0.385,1.974-0.364c0.812,4.044,5.465,2.811,7.265,5.261c3.234,4.399,8.061,4.645,12.758,5.359
    c0.352,1.514,0.677,3.035,0.982,4.56c-0.1,2.863-0.207,5.665,1.631,8.232c1.817,2.534,4.595,2.75,7.692,3.413
    c-1.639,0.678-4.024,0.235-2.94,2.579c0.873,1.885,1.733,3.886,3.73,5.093c1.976,1.191,2.85,0.749,4.088-1.228
    c2.304-3.68,1.395-6.796-0.904-9.802c-1.086-1.42-0.72-3.28,0.454-2.753c2.649,1.185,2.897-0.897,4.075-1.885
    c1.463-1.23,2.95-1.141,4.734-0.294c1.98,0.939,0.636,1.899,0.473,2.955c-0.147,0.988-0.151,1.863,1.178,2.45
    c1.704,0.752,2.269,2.318,2.416,4.313c0.151,2.068,1.017,4.114,2.959,5.414c1.113,0.749,1.586,1.397-0.344,1.668
    c-1.277,0.176-1.164,1.477-0.739,2.042c0.661,0.88,2.572,0.81,2.711,0.256c0.886-3.558,3.051-1.851,4.996-1.528
    c1.141,0.188,2.308,0.129,3.236-0.914c1.096-1.23,2.328-0.966,3.513-0.019c2.04,1.629,4.495,2.058,7.077,2.107
    c-0.424,1.316-1.242,1.449-2.179,1.538c-3.276,0.301-2.142,2.539-1.095,3.644c1.993,2.095,3.744-0.329,5.385-1.119
    c1.418-0.681,2.218-2.218,1.514-4.039c-0.252-0.644-2.295,0.19-1.223-1.05c0.933-1.078,2.531-2.095,4.245-1.77
    c1.238,0.235,0.923,1.185,0.998,2.291c0.338,5.062-1.438,9.763-2.146,14.63c-0.538,3.711-3.668,5.383-7.697,4.19
    c-3.049-0.9-5.878-1.039-8.9-0.049c-1.095,0.358-2.359,0.358-3.683,0.217c-7.253-0.786-14.121-2.471-20.6-6.037
    c-6.236-3.435-9.865-1.534-11.136,5.326c-0.305,1.651-1.456,3.269-2.656,3.014c-3.74-0.783-9.084-1.086-10.657-3.572
    c-3.378-5.336-8.423-5.381-13.167-6.807c-3.832-1.15-5.24-3.615-4.781-7.594c0.321-2.774,0.158-5.931-1.911-8.075
    c-2.181-2.253-5.07-1.149-7.287,0.106c-3.918,2.22-8.227,1.94-12.013,1.146c-7.116-1.49-13.386,0.34-18.986,3.893
    c-5.244,3.325-9.81,4.049-15.005,0.548c-1.768-1.193-3.576-1.234-4.704,1.109c-1.708,3.542-4.62,5.817-8.022,7.611
    c-4.137,2.183-5.596,6.168-5.991,10.371c-0.215,2.297-1.207,3.66-2.529,5.28c-3.128,3.823-8.03,5.2-11.295,9.069
    c-4.194,4.97-5.988,11.224-10.076,16.203c-3.435,4.184-4.603,8.761-1.655,14.323c2.525,4.761,1.688,10.471-1.614,14.642
    c-2.465,3.112-1.715,5.078-0.677,8.192c0.853,2.559-1.616,5.896,1.248,8.419c0.434,0.381,0.743,1.041,1.236,1.209
    c5.342,1.843,7.963,6.968,9.464,11.138c1.972,5.481,5.745,8.75,9.458,12.241c5.387,5.07,11.59,7.647,19.272,4.411
    c3.42-1.438,7.291-2.467,11.134-0.252c0.982,0.565,2.478-0.166,3.777-0.491c5.747-1.432,10.905-4.595,16.782-5.585
    c3.719-0.63,8.717,1.813,9.082,5.217c0.358,3.333,2.185,2.852,4.161,2.702c0.98-0.076,1.915-0.708,2.893-0.781
    c2.848-0.217,4.086,1.407,3.138,3.873c-0.258,0.671-0.518,1.629,0.256,1.954c0.734,0.309,2.091,0.477,2.475,0.063
    c2.054-2.23,2.277-0.759,2.341,1.041c0.106,3.065-0.221,5.995-1.238,9.002c-2.582,7.627-1.864,10.354,3.783,14.998
    c0.076,1.577,1.342,3.19,2.146,4.421c1.318,2.013,2.928,3.883,3.595,6.226c1.05,3.685,1.33,8.194,3.222,11.695
    c-0.282,0.802,0.012,1.661,0.495,2.398c3.724,5.692,1.389,10.348-1.32,15.837c-4.11,8.325-5.389,17.284,0.446,25.85
    c4.841,7.107,6.692,15.182,7.572,23.644c0.434,4.184,0.908,8.253,3.862,12.116c4.022,5.264,8.184,10.817,7.711,18.407
    c-0.256,4.157,4.245,6.516,8.519,5.649c3.31-0.671,6.545-3.14,9.931-1.778c5.917,2.377,10.264-0.587,14.767-3.449
    c8.39-5.34,12.47-14.806,20.001-20.981c1.023-0.839,0.771-2.191,0.331-3.286c-1.77-4.397-0.145-6.985,4-8.924
    c7.304-3.409,8.568-7.461,5.023-14.641c-0.681-1.379-2.138-2.995-0.708-4.221c4.542-3.898,6.559-10.041,12.719-12.64
    c8.454-3.568,10.26-8.728,9.477-17.64c-0.479-5.481-1.514-10.633-3.351-15.686c-0.172-3.789-1.418-7.42-2.494-11.087l-0.072-1.013
    c-0.031,0.182-0.033,0.358-0.057,0.538c-0.084-0.289-0.16-0.583-0.239-0.874c0.061-0.335,0.125-0.665,0.202-0.988l0.094,1.324
    c0.035-0.204,0.059-0.405,0.104-0.612c2.605-11.958,12.854-18.235,19.718-26.991c3.251-4.143,9.125-5.78,11.842-10.567
    c3.928-6.921,7.379-14.111,11.213-21.085c1.956-3.556,2.16-6.997,1.037-10.858c-0.534-1.849-1.207-2.32-2.623-1.465
    c-5.491,3.31-11.78,3.638-17.803,4.969c-3.901,0.857-7.187-1.017-7.926-4.912c-0.82-4.325-3.75-7.159-6.655-9.908
    c-3.766-3.564-9.397-5.532-9.501-12.005c-0.006-0.47-0.651-0.927-1.005-1.387c-3.402-4.446-7.889-8.343-6.923-14.902
    c0.127-0.876-0.962-2.019-1.655-2.913c-5.236-6.79-7.329-15.301-13.538-23.295c5.111,2.564,4.671-0.46,4.963-3.165
    c1.749,3.822,2.087,7.466,4.429,10.43c5.303,6.715,11.815,12.699,13.351,21.827c0.307,1.837,1.782,3.701,3.177,5.086
    c5.688,5.647,10.338,11.611,10.751,20.199c0.278,5.798,3.603,7.741,9.348,6.999c5.508-0.71,9.63-4.505,14.741-6.091
    c4.567-1.416,8.734-3.488,11.563-7.83c0.957-1.479,3.363-2.625,5.207-2.789c4.442-0.405,6.819-3.341,9.48-6.24
    c2.967-3.235,4.016-7.684,7.38-10.702c3.758-3.376,3.108-4.843-0.669-8.267c-4.065-3.693-11.897-4.888-9.933-13.132
    c2.163,2.096,3.595,4.801,7.159,5.521c7.05,1.426,14.157-0.882,21.148,0.763c0.804,0.19,1.676,0.051,2.496-0.522
    c2.437-1.702,5.004-0.307,6.082,1.326c2.56,3.889,6.076,6.162,10.031,8.18c1.698,0.865-0.264,0.72-0.464,0.822
    c-1.107,0.563-0.851,1.469-0.53,2.236c1.141,2.731,3.016,4.55,6.152,4.816c3.034,0.256,5.6-0.174,6.381-4.172
    c0.518,1.428,1.41,2.596,1.174,3.441c-1.944,6.901,1.318,12.658,3.789,18.609c4.086,9.829,9.706,19.008,12.39,29.432
    c0.563,2.181,2.799,2.292,4.395,2.991c1.708,0.749,3.02-0.464,4.086-1.815c5.505-6.968,6.303-15.048,5.671-23.499
    c-0.11-1.445-1.14-3.226,0.868-4.202c5.178-2.51,7.877-7.717,12.144-11.279c2.754-2.306,4.771-5.544,8.362-6.95
    c0.919-0.358,0.806-1.252,0.679-1.874c-0.794-3.815,2.071-4.56,4.566-4.955c2.177-0.342,4.239-0.851,6.279-1.594
    c2.125-0.775,3.594-0.34,4.499,1.968c1.33,3.4,3.539,5.729,6.923,7.723c3.357,1.974,4.959,6.434,5.389,10.328
    c0.268,2.435-0.016,4.454,2.441,5.751c2.649,1.401,4.024-0.481,5.616-2.013C889.051,579.732,890.152,579.456,890.813,582.406z
     M620.535,410.65c-2.795-0.574-6.786-1.972-8.791,2.242c-0.407,0.85-0.606-0.012-0.822-0.181c-1.473-1.157-2.228-0.602-2.897,0.958
    c-0.366,0.849-0.902,1.75-0.282,2.408c0.884,0.937,2.57,0.874,3.294,0.306c2.521-1.976,2.764-0.118,3.539,1.609
    c-0.71,0.137-1.164,0.365-1.547,0.28c-7.116-1.563-7.187-1.51-7.14,5.993c0.018,2.553-3.814,5.504-6.553,4.495
    c-2.293-0.844-4.151-0.614-6.279,0.134c-3.351,1.177-6.682,2.948-10.25,0.195c-1.027-0.793-2.467,0.38-3.718,0.632
    c-1.1,0.223-2.813,1.591-3.627-1.39c2.228,1.059,4.002,0.632,4.922-1.189c0.747-1.481,1.674-0.88,2.754-0.908
    c4.258-0.105,7.82-1.993,9.068-6.052c0.958-3.121,2.467-5.242,5.053-7.044c3.157-2.2,2.942-4.284-0.356-6.304
    c-3.537-2.166-3.805-6.021-0.172-7.847c4.024-2.026,7.369-4.51,9.765-8.362c0.782-1.258,2.3-2.755,3.836-1.481
    c1.408,1.169,0.855,2.878-0.448,4.228c-0.689,0.717-1.068,1.738-1.766,2.441c-2.893,2.904-4.732,6.105-2.377,10.109
    c1.514,2.573,8.302,4.449,12.005,3.227c3.191-1.055,6.228-1.507,9.513-0.127C625.177,410.481,623.414,411.239,620.535,410.65z
     M677.29,478.095c-0.403,1.629-0.798,3.325-2.895,3.957c-3.689,1.111-7.087,0.41-10.311-1.36c-4.051-2.224-8.372-3.039-12.936-3.105
    c-2.017-0.027-3.515,1.005-5.248,1.727c-3.547,1.481-7.253,2.682-11.015,0.13c-1.434-0.972-1.831-1.728-1.451-3.528
    c1.05-4.993,3.781-9.017,6.807-12.887c1.084-1.388,3.067-2.872,4.425-1.93c0.976,0.681,3.642,0.91,2.84,3.943
    c-0.544,2.059,3.998,4.307,6.448,3.48c1.089-0.368,2.152-0.913,3.096-1.562c0.966-0.665,2.856-0.545,2.529-2.453
    c-0.311-1.804-1.989-0.639-2.893-1.195c-0.362-0.223-0.675-0.53-1.457-1.159c3.208-1.396,6.091-2.652,9.139-3.982
    c-0.156,1.698,0.248,3.651-0.542,4.719c-3.245,4.383,0.026,5.677,3.02,7.29c2.799,1.508,5.487,3.238,8.36,4.584
    C676.799,475.507,677.693,476.46,677.29,478.095z M706.616,490.347c1.8-3.482,0.716-6.843-1.185-9.399
    c-2.733-3.68-5.864-7.016-8.314-10.988c-0.98-1.595-1.492-2.327-0.192-3.428c2.539-2.146,5.062-4.386,7.891-6.092
    c3.498-2.113,6.356-1.323,9.877,3.729c-1.215,0.081-1.939,0.148-2.662,0.175c-2.856,0.108-4.726,1.736-5.33,4.306
    c-0.638,2.708,0.782,5.471,3.185,6.074c3.425,0.861,4.92,5.651,9.507,4.126c1.146-0.378,1.622,2.43,2.766,3.654
    c-5.616,0.771-6.121,2.152-2.58,6.759c1.213,1.575,2.926,2.588,3.049,5.071c0.186,3.766-2.588,6.462-6.089,5.06
    c-2.946-1.18-5.763-2.699-8.556-4.222C706.013,494.097,705.667,492.171,706.616,490.347z M735.206,542.914
    c-1.735,2.287-3.513,4.879-6.895,5.714c-2.979,0.732-5.012,1.003-4.918-2.838c0.096-3.926-4.323-3.527-5.771-6.103
    c-0.411-0.731-1.389,0.892-1.741,1.978c-0.446-4.09-3.173-6.811-5.262-9.818c-1.191-1.717-2.402-3.404-0.516-4.933
    c2.099-1.708,4.075-0.098,5.778,1.293c0.403,0.333,0.516,1.013,0.79,1.52c4.701,8.654,10.663,11.596,20.367,9.647
    c1.332-0.265,1.753,0.234,2.437,0.799C737.711,540.509,736.471,541.243,735.206,542.914z M741.723,385.414
    c3.136-3.378,1.943-6.435-0.798-9.866c3.419,1.283,5.876,2.493,5.825,5.54C746.712,383.581,745.176,385.269,741.723,385.414z" style="fill: rgb(127, 214, 225);"></path>
</svg>